<svg width="26" height="26" viewBox="0 0 26 26" fill="none" xmlns="http://www.w3.org/2000/svg">
<path d="M14.483 6.18133C14.4926 6.07856 14.5789 6 14.6821 6H16.3179C16.4211 6 16.5074 6.07856 16.517 6.18133L17.9795 21.7813C17.9905 21.8986 17.8982 22 17.7804 22H13.2196C13.1018 22 13.0095 21.8986 13.0205 21.7813L14.483 6.18133Z" fill="black"/>
<path d="M11 21.5C11 21.2239 11.2239 21 11.5 21H19.5C19.7761 21 20 21.2239 20 21.5C20 21.7761 19.7761 22 19.5 22H11.5C11.2239 22 11 21.7761 11 21.5Z" fill="black"/>
<path d="M12 6.5C12 6.22386 12.2239 6 12.5 6H15.5C15.7761 6 16 6.22386 16 6.5C16 6.77614 15.7761 7 15.5 7H12.5C12.2239 7 12 6.77614 12 6.5Z" fill="black"/>
<circle cx="9.5" cy="6.5" r="3" stroke="black"/>
</svg>
