<svg width="26" height="26" viewBox="0 0 26 26" fill="none" xmlns="http://www.w3.org/2000/svg">
<path d="M11.517 6.18133C11.5074 6.07856 11.4211 6 11.3179 6H9.68213C9.5789 6 9.49264 6.07856 9.483 6.18133L8.0205 21.7813C8.0095 21.8986 8.1018 22 8.21963 22H12.7804C12.8982 22 12.9905 21.8986 12.9795 21.7813L11.517 6.18133Z" fill="black"/>
<path d="M15 21.5C15 21.2239 14.7761 21 14.5 21H6.5C6.22386 21 6 21.2239 6 21.5C6 21.7761 6.22386 22 6.5 22H14.5C14.7761 22 15 21.7761 15 21.5Z" fill="black"/>
<path d="M14 6.5C14 6.22386 13.7761 6 13.5 6H10.5C10.2239 6 10 6.22386 10 6.5C10 6.77614 10.2239 7 10.5 7H13.5C13.7761 7 14 6.77614 14 6.5Z" fill="black"/>
<circle r="3" transform="matrix(-1 0 0 1 16.5 6.5)" stroke="black"/>
</svg>
