<svg width="44" height="44" viewBox="0 0 44 44" fill="none" xmlns="http://www.w3.org/2000/svg">
<path d="M26.5 33L17.5 33L19 24.5C19 24.5 20.8123 25.5 22 25.5C23.1877 25.5 25 24.5 25 24.5L26.5 33Z" fill="black"/>
<path d="M26.5 11L17.5 11L19 19.5C19 19.5 20.8123 18.5 22 18.5C23.1877 18.5 25 19.5 25 19.5L26.5 11Z" fill="black"/>
<path d="M11 26.5L11 17.5L19.5 19C19.5 19 18.5 20.8123 18.5 22C18.5 23.1877 19.5 25 19.5 25L11 26.5Z" fill="black"/>
<path d="M33 26.5L33 17.5L24.5 19C24.5 19 25.5 20.8123 25.5 22C25.5 23.1877 24.5 25 24.5 25L33 26.5Z" fill="black"/>
<circle cx="22" cy="22" r="3.5" stroke="black"/>
</svg>
