<svg width="274" height="171" viewBox="0 0 274 171" fill="none" xmlns="http://www.w3.org/2000/svg">
<path fill-rule="evenodd" clip-rule="evenodd" d="M17.8125 18.3125C11.3464 18.3125 5.39742 21.411 3.42033 27.2324C3.15393 28.0168 2.30206 28.4367 1.51764 28.1703C0.733215 27.9039 0.313281 27.052 0.579689 26.2676C3.10261 18.839 10.5286 15.3125 17.8125 15.3125C25.1053 15.3125 32.81 18.8295 36.1164 26.1312C36.4582 26.8859 36.1234 27.7747 35.3688 28.1164C34.6141 28.4581 33.7253 28.1234 33.3836 27.3687C30.69 21.4205 24.2697 18.3125 17.8125 18.3125Z" fill="#AD5630"/>
<path fill-rule="evenodd" clip-rule="evenodd" d="M80.5625 89.2966C74.0964 89.2966 68.1474 92.395 66.1703 98.2164C65.9039 99.0009 65.0521 99.4208 64.2676 99.1544C63.4832 98.888 63.0633 98.0361 63.3297 97.2517C65.8526 89.8231 73.2786 86.2966 80.5625 86.2966C87.8553 86.2966 95.56 89.8135 98.8664 97.1153C99.2082 97.87 98.8734 98.7588 98.1188 99.1005C97.3641 99.4422 96.4753 99.1075 96.1336 98.3528C93.44 92.4046 87.0197 89.2966 80.5625 89.2966Z" fill="#AD5630"/>
<path fill-rule="evenodd" clip-rule="evenodd" d="M152.063 18.3125C145.596 18.3125 139.647 21.411 137.67 27.2324C137.404 28.0168 136.552 28.4367 135.768 28.1703C134.983 27.9039 134.563 27.052 134.83 26.2676C137.353 18.839 144.779 15.3125 152.063 15.3125C159.355 15.3125 167.06 18.8295 170.366 26.1312C170.708 26.8859 170.373 27.7747 169.619 28.1164C168.864 28.4581 167.975 28.1234 167.634 27.3687C164.94 21.4205 158.52 18.3125 152.063 18.3125Z" fill="#AD5630"/>
<path fill-rule="evenodd" clip-rule="evenodd" d="M209.063 95.7655C202.596 95.7655 196.647 98.864 194.67 104.685C194.404 105.47 193.552 105.89 192.768 105.623C191.983 105.357 191.563 104.505 191.83 103.721C194.353 96.292 201.779 92.7655 209.063 92.7655C216.355 92.7655 224.06 96.2825 227.366 103.584C227.708 104.339 227.373 105.228 226.619 105.569C225.864 105.911 224.975 105.576 224.634 104.822C221.94 98.8735 215.52 95.7655 209.063 95.7655Z" fill="#AD5630"/>
</svg>
