<svg width="277" height="138" viewBox="0 0 277 138" fill="none" xmlns="http://www.w3.org/2000/svg">
<circle cx="37.4866" cy="28.5998" r="4" fill="#AD5630"/>
<circle cx="95.9866" cy="70.0998" r="4" fill="#AD5630"/>
<circle cx="210.487" cy="81.5998" r="4" fill="#AD5630"/>
<circle cx="253.987" cy="126.6" r="4" fill="#AD5630"/>
<circle cx="241.987" cy="27.9753" r="4" fill="#AD5630"/>
<circle cx="156.487" cy="28.5998" r="4" fill="#AD5630"/>
<circle cx="160.487" cy="111.6" r="4" fill="#AD5630"/>
<circle cx="45.4866" cy="115.6" r="4" fill="#AD5630"/>
<circle cx="20.4866" cy="85.5998" r="4" fill="#AD5630"/>
<circle cx="19.7991" cy="18.1623" r="1.0625" fill="#AD5630"/>
<circle cx="253.987" cy="114.537" r="1.0625" transform="rotate(-180 253.987 114.537)" fill="#AD5630"/>
<circle cx="51.6741" cy="43.0373" r="1.0625" fill="#AD5630"/>
<circle cx="222.612" cy="94.1628" r="1.0625" transform="rotate(-180 222.612 94.1628)" fill="#AD5630"/>
<circle cx="57.5179" cy="100.038" r="1.0625" fill="#AD5630"/>
<circle cx="216.768" cy="37.1623" r="1.0625" transform="rotate(-180 216.768 37.1623)" fill="#AD5630"/>
<circle cx="146.518" cy="59.0378" r="1.0625" fill="#AD5630"/>
<circle cx="127.768" cy="78.1623" r="1.0625" transform="rotate(-180 127.768 78.1623)" fill="#AD5630"/>
<circle cx="182.518" cy="35.1628" r="1.0625" fill="#AD5630"/>
<circle cx="91.7679" cy="102.037" r="1.0625" transform="rotate(-180 91.7679 102.037)" fill="#AD5630"/>
<circle cx="106.987" cy="14.9748" r="1.0625" fill="#AD5630"/>
<circle cx="167.299" cy="122.225" r="1.0625" transform="rotate(-180 167.299 122.225)" fill="#AD5630"/>
<circle cx="180.393" cy="111.85" r="1.0625" fill="#AD5630"/>
<circle cx="108.737" cy="29.6003" r="1.0625" transform="rotate(-180 108.737 29.6003)" fill="#AD5630"/>
<circle cx="97.0491" cy="132.725" r="1.0625" fill="#AD5630"/>
<circle cx="177.237" cy="4.47528" r="1.0625" transform="rotate(-180 177.237 4.47528)" fill="#AD5630"/>
<circle cx="5.01761" cy="129.1" r="1.0625" fill="#AD5630"/>
<circle cx="264.33" cy="10.6003" r="1.0625" transform="rotate(-180 264.33 10.6003)" fill="#AD5630"/>
<circle cx="72.4241" cy="17.0998" r="1.0625" fill="#AD5630"/>
<circle cx="201.862" cy="120.1" r="1.0625" transform="rotate(-180 201.862 120.1)" fill="#AD5630"/>
<circle cx="83.4554" cy="5.97479" r="1.0625" fill="#AD5630"/>
<circle cx="96.8772" cy="88.5373" r="1.0625" fill="#AD5630"/>
<circle cx="240.174" cy="55.6003" r="1.0625" fill="#AD5630"/>
<circle cx="19.4241" cy="116.412" r="1.0625" fill="#AD5630"/>
<circle cx="192.58" cy="135.663" r="1.0625" transform="rotate(-180 192.58 135.663)" fill="#AD5630"/>
<circle cx="90.9241" cy="27.5373" r="1.0625" fill="#AD5630"/>
<circle cx="171.924" cy="100.975" r="1.0625" transform="rotate(-180 171.924 100.975)" fill="#AD5630"/>
<circle cx="184.987" cy="95.4748" r="1.0625" transform="rotate(-180 184.987 95.4748)" fill="#AD5630"/>
<circle cx="213.424" cy="106.537" r="1.0625" transform="rotate(-180 213.424 106.537)" fill="#AD5630"/>
<circle cx="241.987" cy="114.537" r="1.0625" transform="rotate(-180 241.987 114.537)" fill="#AD5630"/>
<circle cx="239.862" cy="133.538" r="1.0625" transform="rotate(-180 239.862 133.538)" fill="#AD5630"/>
<circle cx="75.1116" cy="60.9753" r="1.0625" fill="#AD5630"/>
<circle cx="193.643" cy="76.0373" r="1.0625" transform="rotate(-180 193.643 76.0373)" fill="#AD5630"/>
<circle cx="41.4866" cy="71.1623" r="1.0625" fill="#AD5630"/>
<circle cx="232.799" cy="66.0378" r="1.0625" transform="rotate(-180 232.799 66.0378)" fill="#AD5630"/>
<circle cx="92.0491" cy="56.9128" r="1.0625" fill="#AD5630"/>
<circle cx="170.33" cy="87.5378" r="1.0625" transform="rotate(-180 170.33 87.5378)" fill="#AD5630"/>
<circle cx="12.0804" cy="47.5373" r="1.0625" fill="#AD5630"/>
<circle cx="262.205" cy="89.6628" r="1.0625" transform="rotate(-180 262.205 89.6628)" fill="#AD5630"/>
<circle cx="4.08035" cy="7.03729" r="1.0625" fill="#AD5630"/>
<circle cx="270.205" cy="130.163" r="1.0625" transform="rotate(-180 270.205 130.163)" fill="#AD5630"/>
<circle cx="48.4241" cy="10.0998" r="1.0625" fill="#AD5630"/>
<circle cx="225.862" cy="127.1" r="1.0625" transform="rotate(-180 225.862 127.1)" fill="#AD5630"/>
<circle cx="65.9241" cy="50.5378" r="1.0625" fill="#AD5630"/>
<circle cx="199.174" cy="89.9128" r="1.0625" transform="rotate(-180 199.174 89.9128)" fill="#AD5630"/>
<circle cx="68.8616" cy="86.6623" r="1.0625" fill="#AD5630"/>
<circle cx="205.424" cy="56.9128" r="1.0625" transform="rotate(-180 205.424 56.9128)" fill="#AD5630"/>
<circle cx="81.7054" cy="93.3498" r="1.0625" fill="#AD5630"/>
<circle cx="192.58" cy="43.8503" r="1.0625" transform="rotate(-180 192.58 43.8503)" fill="#AD5630"/>
<circle cx="29.2054" cy="104.35" r="1.0625" fill="#AD5630"/>
<circle cx="252.112" cy="37.1623" r="1.0625" transform="rotate(-180 252.112 37.1623)" fill="#AD5630"/>
<circle cx="247.862" cy="12.8498" r="1.0625" transform="rotate(-180 247.862 12.8498)" fill="#AD5630"/>
<circle cx="274.455" cy="22.9128" r="1.0625" transform="rotate(-180 274.455 22.9128)" fill="#AD5630"/>
<circle cx="1.95535" cy="96.8503" r="1.0625" fill="#AD5630"/>
<circle cx="272.33" cy="40.3498" r="1.0625" transform="rotate(-180 272.33 40.3498)" fill="#AD5630"/>
<circle cx="9.95535" cy="73.3503" r="1.0625" fill="#AD5630"/>
<circle cx="264.33" cy="63.8498" r="1.0625" transform="rotate(-180 264.33 63.8498)" fill="#AD5630"/>
<circle cx="34.5491" cy="50.7248" r="1.0625" fill="#AD5630"/>
<circle cx="239.737" cy="86.4753" r="1.0625" transform="rotate(-180 239.737 86.4753)" fill="#AD5630"/>
<circle cx="3.01785" cy="39.4128" r="1.0625" fill="#AD5630"/>
<circle cx="271.268" cy="97.7873" r="1.0625" transform="rotate(-180 271.268 97.7873)" fill="#AD5630"/>
<circle cx="156.487" cy="91.7878" r="1.0625" fill="#AD5630"/>
<circle cx="104.862" cy="41.4123" r="1.0625" transform="rotate(-180 104.862 41.4123)" fill="#AD5630"/>
<circle cx="168.737" cy="60.1003" r="1.0625" fill="#AD5630"/>
<circle cx="105.549" cy="77.0998" r="1.0625" transform="rotate(-180 105.549 77.0998)" fill="#AD5630"/>
<circle cx="120.299" cy="89.9128" r="1.0625" fill="#AD5630"/>
<circle cx="130.737" cy="62.7878" r="1.0625" transform="rotate(-180 130.737 62.7878)" fill="#AD5630"/>
<circle cx="120.299" cy="63.2878" r="1.0625" fill="#AD5630"/>
<circle cx="153.987" cy="73.9123" r="1.0625" transform="rotate(-180 153.987 73.9123)" fill="#AD5630"/>
<circle cx="121.362" cy="115.6" r="1.0625" fill="#AD5630"/>
<circle cx="152.924" cy="21.6003" r="1.0625" transform="rotate(-180 152.924 21.6003)" fill="#AD5630"/>
<circle cx="128.612" cy="2.59979" r="1.0625" fill="#AD5630"/>
<circle cx="145.674" cy="134.6" r="1.0625" transform="rotate(-180 145.674 134.6)" fill="#AD5630"/>
<circle cx="205.424" cy="27.5373" r="1.0625" fill="#AD5630"/>
<circle cx="68.8616" cy="109.663" r="1.0625" transform="rotate(-180 68.8616 109.663)" fill="#AD5630"/>
<circle cx="229.424" cy="11.1623" r="1.0625" fill="#AD5630"/>
<circle cx="44.8616" cy="126.038" r="1.0625" transform="rotate(-180 44.8616 126.038)" fill="#AD5630"/>
<circle cx="261.58" cy="4.72479" r="1.0625" fill="#AD5630"/>
<circle cx="16.4866" cy="131.662" r="1.0625" transform="rotate(-180 16.4866 131.662)" fill="#AD5630"/>
<circle cx="271.33" cy="57.9753" r="1.0625" fill="#AD5630"/>
<circle cx="2.95535" cy="79.2248" r="1.0625" transform="rotate(-180 2.95535 79.2248)" fill="#AD5630"/>
<circle cx="247.049" cy="45.1623" r="1.0625" fill="#AD5630"/>
<circle cx="27.2366" cy="92.0378" r="1.0625" transform="rotate(-180 27.2366 92.0378)" fill="#AD5630"/>
<circle cx="231.549" cy="76.5373" r="1.0625" fill="#AD5630"/>
<circle cx="42.7366" cy="60.6628" r="1.0625" transform="rotate(-180 42.7366 60.6628)" fill="#AD5630"/>
<circle cx="266.299" cy="80.5373" r="1.0625" fill="#AD5630"/>
<circle cx="7.9866" cy="56.6628" r="1.0625" transform="rotate(-180 7.9866 56.6628)" fill="#AD5630"/>
<circle cx="249.987" cy="66.0998" r="1.0625" fill="#AD5630"/>
<circle cx="24.2991" cy="71.1003" r="1.0625" transform="rotate(-180 24.2991 71.1003)" fill="#AD5630"/>
<circle cx="245.987" cy="96.8503" r="1.0625" fill="#AD5630"/>
<circle cx="28.2991" cy="40.3498" r="1.0625" transform="rotate(-180 28.2991 40.3498)" fill="#AD5630"/>
<circle cx="188.705" cy="80.5373" r="1.0625" fill="#AD5630"/>
<circle cx="88.2366" cy="47.2873" r="1.0625" transform="rotate(-180 88.2366 47.2873)" fill="#AD5630"/>
<circle cx="209.424" cy="65.4128" r="1.0625" fill="#AD5630"/>
<circle cx="64.8616" cy="71.7873" r="1.0625" transform="rotate(-180 64.8616 71.7873)" fill="#AD5630"/>
<circle cx="213.424" cy="136.663" r="1.0625" fill="#AD5630"/>
<circle cx="63.8616" cy="1.53729" r="1.0625" transform="rotate(-180 63.8616 1.53729)" fill="#AD5630"/>
<circle cx="199.174" cy="102.163" r="1.0625" fill="#AD5630"/>
<circle cx="75.1116" cy="35.0373" r="1.0625" transform="rotate(-180 75.1116 35.0373)" fill="#AD5630"/>
<circle cx="108.049" cy="94.7253" r="1.0625" fill="#AD5630"/>
<circle cx="166.237" cy="42.4748" r="1.0625" transform="rotate(-180 166.237 42.4748)" fill="#AD5630"/>
<circle cx="190.83" cy="56.9128" r="1.0625" fill="#AD5630"/>
<circle cx="83.4554" cy="80.2873" r="1.0625" transform="rotate(-180 83.4554 80.2873)" fill="#AD5630"/>
<circle cx="226.83" cy="33.0378" r="1.0625" fill="#AD5630"/>
<circle cx="47.4554" cy="104.162" r="1.0625" transform="rotate(-180 47.4554 104.162)" fill="#AD5630"/>
<circle cx="151.299" cy="12.8498" r="1.0625" fill="#AD5630"/>
<circle cx="122.987" cy="124.35" r="1.0625" transform="rotate(-180 122.987 124.35)" fill="#AD5630"/>
<circle cx="102.737" cy="113.475" r="1.0625" transform="rotate(-180 102.737 113.475)" fill="#AD5630"/>
<circle cx="121.362" cy="101.1" r="1.0625" transform="rotate(-180 121.362 101.1)" fill="#AD5630"/>
<circle cx="134.455" cy="110.537" r="1.0625" transform="rotate(-180 134.455 110.537)" fill="#AD5630"/>
<circle cx="144.393" cy="82.6623" r="1.0625" transform="rotate(-180 144.393 82.6623)" fill="#AD5630"/>
<circle cx="108.049" cy="56.6628" r="1.0625" transform="rotate(-180 108.049 56.6628)" fill="#AD5630"/>
<circle cx="118.174" cy="43.0373" r="1.0625" transform="rotate(-180 118.174 43.0373)" fill="#AD5630"/>
<circle cx="148.643" cy="44.0998" r="1.0625" transform="rotate(-180 148.643 44.0998)" fill="#AD5630"/>
<circle cx="169.799" cy="73.9123" r="1.0625" transform="rotate(-180 169.799 73.9123)" fill="#AD5630"/>
<circle cx="178.299" cy="50.5378" r="1.0625" transform="rotate(-180 178.299 50.5378)" fill="#AD5630"/>
<circle cx="171.393" cy="23.5373" r="1.0625" transform="rotate(-180 171.393 23.5373)" fill="#AD5630"/>
<circle cx="158.612" cy="3.66229" r="1.0625" transform="rotate(-180 158.612 3.66229)" fill="#AD5630"/>
<circle cx="138.174" cy="10.6003" r="1.0625" transform="rotate(-180 138.174 10.6003)" fill="#AD5630"/>
<circle cx="202.924" cy="5.53778" r="1.0625" transform="rotate(-180 202.924 5.53778)" fill="#AD5630"/>
<circle cx="206.299" cy="43.8503" r="1.0625" transform="rotate(-180 206.299 43.8503)" fill="#AD5630"/>
<circle cx="224.705" cy="109.725" r="1.0625" fill="#AD5630"/>
<circle cx="49.5804" cy="27.4753" r="1.0625" transform="rotate(-180 49.5804 27.4753)" fill="#AD5630"/>
<circle cx="145.455" cy="118.537" r="1.0625" fill="#AD5630"/>
<circle cx="128.612" cy="19.4753" r="1.0625" transform="rotate(-180 128.612 19.4753)" fill="#AD5630"/>
<circle cx="54.2679" cy="124.475" r="1.0625" fill="#AD5630"/>
<circle cx="220.018" cy="12.7253" r="1.0625" transform="rotate(-180 220.018 12.7253)" fill="#AD5630"/>
<circle cx="130.737" cy="39.8498" r="1.0625" fill="#AD5630"/>
<circle cx="145.674" cy="102.163" r="1.0625" transform="rotate(-180 145.674 102.163)" fill="#AD5630"/>
<circle cx="136.58" cy="96.8503" r="1.0625" fill="#AD5630"/>
<circle cx="141.299" cy="28.5998" r="1.0625" transform="rotate(-180 141.299 28.5998)" fill="#AD5630"/>
<circle cx="225.58" cy="55.8503" r="1.0625" fill="#AD5630"/>
<circle cx="48.7054" cy="81.3498" r="1.0625" transform="rotate(-180 48.7054 81.3498)" fill="#AD5630"/>
<circle cx="261.58" cy="31.9753" r="1.0625" fill="#AD5630"/>
<circle cx="12.7054" cy="105.225" r="1.0625" transform="rotate(-180 12.7054 105.225)" fill="#AD5630"/>
<circle cx="186.049" cy="11.7873" r="1.0625" fill="#AD5630"/>
<circle cx="88.2366" cy="125.413" r="1.0625" transform="rotate(-180 88.2366 125.413)" fill="#AD5630"/>
<circle cx="275.705" cy="114.162" r="1.0625" fill="#AD5630"/>
<circle cx="259.455" cy="103.287" r="1.0625" fill="#AD5630"/>
<circle cx="251.049" cy="79.2248" r="1.0625" fill="#AD5630"/>
<circle cx="260.518" cy="50.7248" r="1.0625" fill="#AD5630"/>
<circle cx="226.83" cy="45.9753" r="1.0625" fill="#AD5630"/>
<circle cx="157.549" cy="55.6003" r="1.0625" fill="#AD5630"/>
<circle cx="137.112" cy="50.7248" r="1.0625" fill="#AD5630"/>
<circle cx="125.112" cy="51.7873" r="1.0625" fill="#AD5630"/>
<circle cx="121.924" cy="29.8503" r="1.0625" fill="#AD5630"/>
<circle cx="62.7366" cy="29.8503" r="1.0625" fill="#AD5630"/>
<circle cx="60.8616" cy="12.2248" r="1.0625" fill="#AD5630"/>
<circle cx="34.5491" cy="4.91229" r="1.0625" fill="#AD5630"/>
<circle cx="6.9241" cy="18.4128" r="1.0625" fill="#AD5630"/>
<circle cx="36.4241" cy="17.0998" r="1.0625" fill="#AD5630"/>
<circle cx="20.8616" cy="56.6628" r="1.0625" fill="#AD5630"/>
<circle cx="40.4241" cy="92.6003" r="1.0625" fill="#AD5630"/>
<circle cx="56.3929" cy="60.9753" r="1.0625" fill="#AD5630"/>
<circle cx="29.2054" cy="120.662" r="1.0625" fill="#AD5630"/>
<circle cx="3.95511" cy="114.537" r="1.0625" fill="#AD5630"/>
<circle cx="28.2991" cy="132.725" r="1.0625" fill="#AD5630"/>
<circle cx="17.6741" cy="3.66229" r="1.0625" fill="#AD5630"/>
<circle cx="106.987" cy="126.069" r="1.0625" fill="#AD5630"/>
<circle cx="140.237" cy="71.7873" r="1.0625" fill="#AD5630"/>
<circle cx="106.612" cy="1.59979" r="1.0625" fill="#AD5630"/>
<circle cx="166.612" cy="12.8498" r="1.0625" fill="#AD5630"/>
<circle cx="256.924" cy="21.4123" r="1.0625" fill="#AD5630"/>
<circle cx="208.424" cy="16.2878" r="1.0625" fill="#AD5630"/>
<circle cx="230.674" cy="2.59979" r="1.0625" fill="#AD5630"/>
<circle cx="214.643" cy="119.6" r="1.0625" fill="#AD5630"/>
<circle cx="69.9241" cy="123.662" r="1.0625" fill="#AD5630"/>
<circle cx="14.8304" cy="28.5378" r="1.0625" transform="rotate(-180 14.8304 28.5378)" fill="#AD5630"/>
<circle cx="180.112" cy="125.006" r="1.0625" fill="#AD5630"/>
<circle cx="94.1741" cy="12.194" r="1.0625" transform="rotate(-180 94.1741 12.194)" fill="#AD5630"/>
<circle cx="82.7679" cy="114.537" r="1.0625" fill="#AD5630"/>
<circle cx="191.518" cy="22.6628" r="1.0625" transform="rotate(-180 191.518 22.6628)" fill="#AD5630"/>
</svg>
