<svg width="72" height="87" viewBox="0 0 72 87" fill="none" xmlns="http://www.w3.org/2000/svg">
<path fill-rule="evenodd" clip-rule="evenodd" d="M54.2394 79.5C54.2394 83.366 43.942 86.5 31.2394 86.5C18.5369 86.5 8.23944 83.366 8.23944 79.5C8.23944 75.7354 18.0041 72.6648 30.2456 72.5064C31.9392 53.7296 32.0551 38.3626 28.6419 26.7958C15.5179 29.5893 6.98314 48.5442 5.86445 56.375C-3.13555 50 -1.19805 40.9375 7.73945 32C13.7394 26 20.7394 24 23.6144 22.875C15.2394 22.125 5.86446 23.375 3.73945 26.75C-1.01054 21.625 0.364449 14.875 6.98945 13.375C13.6144 11.875 22.7811 13.75 24.7395 15.0834C23.7395 11.5834 19.8645 9.12501 17.3645 8.33334C17.3645 3.5 22.1145 2.50003 24.7395 3.12503C28.4573 4.01022 32.8645 7.70836 32.2395 15.0834C36.4895 8.33334 41.6144 0.5 56.2395 0.5C66.7394 0.5 68.5311 9.83334 65.9895 12.375C56.7395 10.25 46.7394 10.5 37.4894 18.875C55.1144 20.25 55.4895 30.5 50.1145 37.25C43.2755 30.2889 38.1069 27.7425 35.0751 26.813C37.197 31.4139 38.7008 39.5456 39.2288 49.7062C41.9641 47.9748 45.7203 48.642 47.7394 48.875C47.9894 47 44.1769 44.0625 40.8644 45C40.8644 43.25 42.4161 39.5609 46.9894 40.25C51.5519 40.9375 52.5519 45.625 52.5519 47.5C54.5519 46.375 60.5519 43.75 66.3019 45C72.0519 46.25 72.8019 52.375 68.8019 56.1875C66.8644 53.1875 60.2269 50.875 56.9269 50.875C67.9269 58.6875 64.6769 70.9375 58.6769 70.1875C59.8644 63.9375 56.8019 56.125 53.5519 52.375C53.5519 57.7487 47.4928 68.4719 43.2307 73.5255C49.8336 74.7556 54.2394 76.9712 54.2394 79.5ZM47.7394 52.375C45.476 52.375 42.3302 53.0998 39.3985 54.3705C39.4749 57.9419 39.4374 61.7132 39.2727 65.6292C43.4703 61.3885 47.1423 56.0576 47.7394 52.375Z" fill="black"/>
</svg>
