<svg width="147" height="136" viewBox="0 0 147 136" fill="none" xmlns="http://www.w3.org/2000/svg">
<ellipse cx="65.5029" cy="87.375" rx="63.7366" ry="35.125" transform="rotate(2.60114 65.5029 87.375)" fill="#7ABE4C"/>
<ellipse cx="77.5029" cy="93.1601" rx="63.7366" ry="35.125" transform="rotate(2.60114 77.5029 93.1601)" stroke="#171818" stroke-width="8" stroke-linecap="round" stroke-linejoin="round" stroke-dasharray="0.1 26"/>
<path d="M78.0252 78C78.0252 80.4853 71.4054 82.5 63.2394 82.5C55.0735 82.5 48.4537 80.4853 48.4537 78C48.4537 75.8427 53.4415 74.04 60.0987 73.6017C61.9468 53.9182 62.1552 37.8945 58.5435 25.9668C45.6749 29.1228 36.9696 48.1387 35.8644 55.875C26.8644 49.5 28.802 40.4375 37.7395 31.5C43.7394 25.5 50.7394 23.5 53.6144 22.375C45.2394 21.625 35.8645 22.875 33.7395 26.25C28.9895 21.125 30.3644 14.375 36.9894 12.875C43.6144 11.375 52.7811 13.25 54.7395 14.5834C53.7395 11.0834 49.8645 8.62501 47.3645 7.83334C47.3645 3 52.1145 2.00003 54.7395 2.62503C58.4573 3.51022 62.8645 7.20836 62.2395 14.5834C66.4895 7.83334 71.6144 0 86.2395 0C96.7394 0 98.5311 9.33334 95.9895 11.875C86.7395 9.75 76.7394 10 67.4894 18.375C85.1144 19.75 85.4895 30 80.1145 36.75C74.9133 31.456 68.1249 27.7147 64.9795 26.1414C68.6251 33.9911 70.4928 52.9509 68.8155 73.831C74.2175 74.5009 78.0252 76.1151 78.0252 78Z" fill="black"/>
</svg>
