<svg width="68" height="83" viewBox="0 0 68 83" fill="none" xmlns="http://www.w3.org/2000/svg">
<path d="M48.5252 78C48.5252 80.4853 41.9054 82.5 33.7394 82.5C25.5735 82.5 18.9537 80.4853 18.9537 78C18.9537 75.8427 23.9415 74.04 30.5987 73.6017C32.4468 53.9182 32.6552 37.8945 29.0435 25.9668C16.1749 29.1228 7.46964 48.1387 6.36445 55.875C-2.63555 49.5 -0.698048 40.4375 8.23945 31.5C14.2394 25.5 21.2394 23.5 24.1144 22.375C15.7394 21.625 6.36446 22.875 4.23945 26.25C-0.510537 21.125 0.864449 14.375 7.48945 12.875C14.1144 11.375 23.2811 13.25 25.2395 14.5834C24.2395 11.0834 20.3645 8.62501 17.8645 7.83334C17.8645 3 22.6145 2.00003 25.2395 2.62503C28.9573 3.51022 33.3645 7.20836 32.7395 14.5834C36.9895 7.83334 42.1144 0 56.7395 0C67.2394 0 69.0311 9.33334 66.4895 11.875C57.2395 9.75 47.2394 10 37.9894 18.375C55.6144 19.75 55.9895 30 50.6145 36.75C45.4133 31.456 38.6249 27.7147 35.4795 26.1414C39.1251 33.9911 40.9928 52.9509 39.3155 73.831C44.7175 74.5009 48.5252 76.1151 48.5252 78Z" fill="black"/>
</svg>
