<svg width="313" height="195" viewBox="0 0 313 195" fill="none" xmlns="http://www.w3.org/2000/svg">
<path fill-rule="evenodd" clip-rule="evenodd" d="M21.7203 9.44545L44.1922 28.8573L37.0171 55.6621L8.7524 55.6238L0.64798 28.9138L21.7203 9.44545ZM21.7875 13.4678L4.06457 29.8417L10.9781 52.6268L34.7154 52.6589L40.8079 29.8982L21.7875 13.4678Z" fill="#AD5630"/>
<path fill-rule="evenodd" clip-rule="evenodd" d="M128.55 129.677L103.984 146.359L79.9495 132.491L87.3019 105.199L115.199 104.284L128.55 129.677ZM124.648 128.701L113.419 107.344L89.6207 108.125L83.446 131.045L103.854 142.821L124.648 128.701Z" fill="#AD5630"/>
<path fill-rule="evenodd" clip-rule="evenodd" d="M251.295 141.092L223.382 130.959L220.537 103.356L246.961 93.3232L264.049 115.394L251.295 141.092ZM249.799 137.357L260.526 115.744L245.949 96.9164L223.758 105.343L226.173 128.78L249.799 137.357Z" fill="#AD5630"/>
<path fill-rule="evenodd" clip-rule="evenodd" d="M146.059 17.2505L175.575 13.9927L190.334 37.4902L171.073 58.176L145.986 45.9394L146.059 17.2505ZM149.052 19.9383L148.991 44.0672L170.392 54.5057L186.567 37.1334L174.035 17.1809L149.052 19.9383Z" fill="#AD5630"/>
</svg>
