<svg width="265" height="75" viewBox="0 0 265 75" fill="none" xmlns="http://www.w3.org/2000/svg">
<path d="M50.1609 54.8797L77.6771 50.5809L63.2455 74.4L50.1609 54.8797Z" fill="#AD5630"/>
<path d="M36.556 25.1689L56.3488 44.7616L28.6134 47.286L36.556 25.1689Z" fill="#AD5630"/>
<path d="M28.6134 11.4658L11.444 33.3938L5.72549 6.13713L28.6134 11.4658Z" fill="#AD5630"/>
<path d="M94.0467 54.1631L76.0729 32.8894L103.923 32.8391L94.0467 54.1631Z" fill="#AD5630"/>
<path d="M151.002 58.1761L173.053 41.1647L171.867 68.9894L151.002 58.1761Z" fill="#AD5630"/>
<path d="M260.655 70.064L237.64 54.3814L264.459 46.874L260.655 70.064Z" fill="#AD5630"/>
<path d="M125.176 31.6217L152.401 37.4904L130.379 54.5386L125.176 31.6217Z" fill="#AD5630"/>
<path d="M197.818 18.1296L170.862 25.1304L182.866 -2.38419e-07L197.818 18.1296Z" fill="#AD5630"/>
<path d="M104.923 1L120.394 24.1573L92.7148 21.0802L104.923 1Z" fill="#AD5630"/>
<path d="M254.062 31.1952L230.894 46.6503L233.991 18.973L254.062 31.1952Z" fill="#AD5630"/>
<path d="M193.818 35.2731L213.024 15.105L216.085 42.7864L193.818 35.2731Z" fill="#AD5630"/>
</svg>
