<svg width="31" height="29" viewBox="0 0 31 29" fill="none" xmlns="http://www.w3.org/2000/svg">
<path d="M4.75 10.25L0 14.625L1.625 16.75L4.75 13.75H8.875L12.75 15.375L14.375 13.75L10.125 10.25H4.75Z" fill="black"/>
<path d="M12.75 4.75L14.375 0.125H17.625L16.625 5.375L18.75 9.375H22.5L28.125 7.125L30.625 9.375L24.25 13.25L16.625 12.75L12.75 8.375V4.75Z" fill="black"/>
<path d="M11.75 24.125L6 25.375L7.25 28.875L14.375 27.125L17.75 19.875L21.75 24.125H29.75V20.25H21.75L19.25 15.75L16.625 15.125L14.375 17.25L11.75 24.125Z" fill="black"/>
</svg>
