<svg width="123" height="134" viewBox="0 0 123 134" fill="none" xmlns="http://www.w3.org/2000/svg">
<path d="M5.875 93.5C7.875 117 19.875 121.5 32.875 121.75C45.875 121.75 54.875 112.5 63.625 104.25C72.375 96 93.625 73 103.375 59.25C113.125 45.5 114.625 34 111.625 21.5C108.625 9.00002 103.375 4.24998 91.625 3.99998C79.875 3.74998 41.625 7.49998 24.125 9.99998C6.625 12.5 3.875 28.25 4.125 34C4.375 39.75 3.875 70 5.875 93.5Z" fill="#F5CC91"/>
<path d="M5.98628 99.1437C8.11238 124.125 20.869 128.909 34.6886 129.175C48.5083 129.175 58.0757 119.342 67.3774 110.572C76.6791 101.801 99.2689 77.3512 109.634 62.7343C119.998 48.1173 121.593 35.8922 118.404 22.6041C115.215 9.31602 109.634 4.26649 97.1428 4.00073C84.652 3.73497 43.9903 7.72141 25.3869 10.379C6.78356 13.0367 3.86018 29.7797 4.12594 35.8922C4.3917 42.0048 3.86018 74.162 5.98628 99.1437Z" stroke="black" stroke-width="8" stroke-linecap="round" stroke-linejoin="round" stroke-dasharray="0.1 20"/>
<path d="M51.373 43.184L44.9506 43.8601L44.9865 46.535L49.2844 45.9925L52.5944 48.454L54.7341 52.0704L57.0078 51.7361L55.686 46.3914L51.373 43.184Z" fill="black"/>
<path d="M61.0745 43.5445L65.1384 40.8029L67.7463 42.7424L63.811 46.3584L63.1292 50.8362L66.1383 53.074L71.9947 54.6252L72.6581 57.9225L65.2302 57.2277L59.41 52.2763L58.9113 46.4533L61.0745 43.5445Z" fill="black"/>
<path d="M48.7102 58.4949L43.3503 56.0667L42.2647 59.6211L49.0264 62.4687L56.061 58.665L56.7345 64.4623L63.154 69.2363L65.4664 66.1268L59.0469 61.3529L59.7262 56.2501L57.9927 54.1821L54.9192 54.5446L48.7102 58.4949Z" fill="black"/>
</svg>
