<svg width="35" height="35" viewBox="0 0 35 35" fill="none" xmlns="http://www.w3.org/2000/svg">

<ellipse cx="21.307" cy="5.2963" rx="1.30697" ry="1.2963" fill="#933200"/>
<ellipse cx="29.307" cy="5.2963" rx="1.30697" ry="1.2963" fill="#933200"/>
<ellipse cx="25.307" cy="12.2963" rx="1.30697" ry="1.2963" fill="#933200"/>
<ellipse cx="17.307" cy="18.2963" rx="1.30697" ry="1.2963" fill="#933200"/>
<ellipse cx="23.307" cy="20.2963" rx="1.30697" ry="1.2963" fill="#933200"/>
<ellipse cx="4.30697" cy="14.2963" rx="1.30697" ry="1.2963" fill="#933200"/>
<ellipse cx="3.30697" cy="22.2963" rx="1.30697" ry="1.2963" fill="#933200"/>
<ellipse cx="8.30696" cy="18.2963" rx="1.30697" ry="1.2963" fill="#933200"/>
<ellipse cx="17.307" cy="9.2963" rx="1.30697" ry="1.2963" fill="#933200"/>
<ellipse cx="10.307" cy="12.2963" rx="1.30697" ry="1.2963" fill="#933200"/>
<ellipse cx="6.30697" cy="27.2963" rx="1.30697" ry="1.2963" fill="#933200"/>
<ellipse cx="13.307" cy="26.2963" rx="1.30697" ry="1.2963" fill="#933200"/>
<ellipse cx="18.307" cy="30.2963" rx="1.30697" ry="1.2963" fill="#933200"/>
<ellipse cx="19.307" cy="24.2963" rx="1.30697" ry="1.2963" fill="#933200"/>
<ellipse cx="31.307" cy="25.2963" rx="1.30697" ry="1.2963" fill="#933200"/>
</svg>
