<svg width="27" height="27" viewBox="0 0 27 27" fill="none" xmlns="http://www.w3.org/2000/svg">
<path d="M15.8868 11.236C14.8868 9.23602 11.8333 9.98161 11.625 11.2361L10 18.1287L14.6875 18.1287L15.8868 11.236Z" fill="black"/>
<path d="M11.625 11.2361L12.1117 11.3508L12.1155 11.3345L12.1182 11.318L11.625 11.2361ZM15.8868 11.236L16.3794 11.3217C16.3977 11.2164 16.3818 11.108 16.334 11.0123L15.8868 11.236ZM14.6875 18.1287L14.6875 18.6287L15.108 18.6287L15.1801 18.2144L14.6875 18.1287ZM10 18.1287L9.51334 18.0139L9.36841 18.6287L10 18.6287L10 18.1287ZM12.1182 11.318C12.1389 11.1937 12.2455 11.017 12.5105 10.8449C12.7677 10.6779 13.1224 10.5525 13.5097 10.513C14.2886 10.4336 15.0609 10.7022 15.4396 11.4596L16.334 11.0123C15.7127 9.76975 14.4582 9.41117 13.4083 9.5182C12.8813 9.57193 12.371 9.74318 11.9659 10.0063C11.5685 10.2643 11.2153 10.6513 11.1318 11.1542L12.1182 11.318ZM15.3942 11.1503L14.1949 18.043L15.1801 18.2144L16.3794 11.3217L15.3942 11.1503ZM10.4867 18.2434L12.1117 11.3508L11.1383 11.1214L9.51334 18.0139L10.4867 18.2434ZM14.6875 17.6287L10 17.6287L10 18.6287L14.6875 18.6287L14.6875 17.6287Z" fill="black"/>
<path d="M10 18.1289H17" stroke="black" stroke-linecap="round" stroke-linejoin="round"/>
</svg>
