<svg width="32" height="32" viewBox="0 0 32 32" fill="none" xmlns="http://www.w3.org/2000/svg">
<rect x="1" y="1" width="30" height="30" rx="1" stroke="#933200" stroke-linecap="round" stroke-linejoin="round"/>
<path d="M16 1L16 5" stroke="#933200" stroke-linecap="round"/>
<path d="M8 1L8 5" stroke="#933200" stroke-linecap="round"/>
<path d="M24 1L24 5" stroke="#933200" stroke-linecap="round"/>
<path d="M16 1L16 5" stroke="#933200" stroke-linecap="round"/>
<path d="M8 1L8 5" stroke="#933200" stroke-linecap="round"/>
<path d="M24 1L24 5" stroke="#933200" stroke-linecap="round"/>
<path d="M16 27L16 31" stroke="#933200" stroke-linecap="round"/>
<path d="M8 27L8 31" stroke="#933200" stroke-linecap="round"/>
<path d="M24 27L24 31" stroke="#933200" stroke-linecap="round"/>
<path d="M5 16L1 16" stroke="#933200" stroke-linecap="round"/>
<path d="M5 8L1 8" stroke="#933200" stroke-linecap="round"/>
<path d="M5 24L1 24" stroke="#933200" stroke-linecap="round"/>
<path d="M31 16L27 16" stroke="#933200" stroke-linecap="round"/>
<path d="M31 8L27 8" stroke="#933200" stroke-linecap="round"/>
<path d="M31 24L27 24" stroke="#933200" stroke-linecap="round"/>
</svg>
