<svg width="50" height="26" viewBox="0 0 50 26" fill="none" xmlns="http://www.w3.org/2000/svg">
<path d="M23.0979 13.3168L20 9.95227L22.4234 10.0522L24.8468 10.1522L23.0979 13.3168Z" fill="#933200" stroke="#933200" stroke-linejoin="round"/>
<path d="M38.2052 15.4961L37.3677 11L39.3678 12.372L41.368 13.7439L38.2052 15.4961Z" fill="#933200" stroke="#933200" stroke-linejoin="round"/>
<path d="M8.68944 9.99993L6.58178 15.5316L9.80127 13.8521L8.68944 9.99993Z" fill="#933200" stroke="#933200" stroke-linecap="round" stroke-linejoin="round"/>
<circle cx="5" cy="10" r="1" fill="#933200"/>
<circle cx="15" cy="9" r="1" fill="#933200"/>
<circle cx="18" cy="15" r="1" fill="#933200"/>
<circle cx="13" cy="15" r="1" fill="#933200"/>
<circle cx="25" cy="15" r="1" fill="#933200"/>
<circle cx="27" cy="10" r="1" fill="#933200"/>
<circle cx="34" cy="11" r="1" fill="#933200"/>
<circle cx="43" cy="10" r="1" fill="#933200"/>
<circle cx="45" cy="15" r="1" fill="#933200"/>
<circle cx="32" cy="16" r="1" fill="#933200"/>
</svg>
