<svg width="51" height="51" viewBox="0 0 51 51" fill="none" xmlns="http://www.w3.org/2000/svg">
<path d="M18 19.3442C18 23.5724 14.6421 27 10.5 27C6.35786 27 3 23.5724 3 19.3442C3 17.7309 3.48883 16.2342 4.32353 15" stroke="#933200" stroke-linecap="round"/>
<circle cx="10" cy="22" r="1.5" stroke="#933200"/>
<path d="M47 7.34418C47 11.5724 43.6421 15 39.5 15C35.3579 15 32 11.5724 32 7.34418C32 5.73094 32.4888 4.23424 33.3235 3" stroke="#933200" stroke-linecap="round"/>
<circle cx="39" cy="10" r="1.5" stroke="#933200"/>
<path d="M39 37.3442C39 41.5724 35.6421 45 31.5 45C27.3579 45 24 41.5724 24 37.3442C24 35.7309 24.4888 34.2342 25.3235 33" stroke="#933200" stroke-linecap="round"/>
<circle cx="31" cy="40" r="1.5" stroke="#933200"/>
<circle cx="9" cy="6" r="1" fill="#933200"/>
<circle cx="21" cy="7" r="1" fill="#933200"/>
<circle cx="14" cy="13" r="1" fill="#933200"/>
<circle cx="28" cy="16" r="1" fill="#933200"/>
<circle cx="37" cy="17" r="1" fill="#933200"/>
<circle cx="45" cy="4" r="1" fill="#933200"/>
<circle cx="43" cy="23" r="1" fill="#933200"/>
<circle cx="37" cy="34" r="1" fill="#933200"/>
<circle cx="32" cy="30" r="1" fill="#933200"/>
<circle cx="48" cy="33" r="1" fill="#933200"/>
<circle cx="43" cy="44" r="1" fill="#933200"/>
<circle cx="29" cy="48" r="1" fill="#933200"/>
<circle cx="13" cy="45" r="1" fill="#933200"/>
<circle cx="17" cy="32" r="1" fill="#933200"/>
<circle cx="7" cy="36" r="1" fill="#933200"/>
</svg>
