<svg width="44" height="44" viewBox="0 0 44 44" fill="none" xmlns="http://www.w3.org/2000/svg">
<mask id="path-1-inside-1" fill="white">
<path fill-rule="evenodd" clip-rule="evenodd" d="M38 7C38 6.44772 37.5523 6 37 6H7C6.44772 6 6 6.44772 6 7V37C6 37.5523 6.44772 38 7 38H37C37.5523 38 38 37.5523 38 37V7ZM22 33C28.0751 33 33 28.0751 33 22C33 15.9249 28.0751 11 22 11C15.9249 11 11 15.9249 11 22C11 28.0751 15.9249 33 22 33Z"/>
</mask>
<path fill-rule="evenodd" clip-rule="evenodd" d="M38 7C38 6.44772 37.5523 6 37 6H7C6.44772 6 6 6.44772 6 7V37C6 37.5523 6.44772 38 7 38H37C37.5523 38 38 37.5523 38 37V7ZM22 33C28.0751 33 33 28.0751 33 22C33 15.9249 28.0751 11 22 11C15.9249 11 11 15.9249 11 22C11 28.0751 15.9249 33 22 33Z" fill="black"/>
<path d="M7 7H37V5H7V7ZM7 37V7H5V37H7ZM37 37H7V39H37V37ZM37 7V37H39V7H37ZM32 22C32 27.5228 27.5228 32 22 32V34C28.6274 34 34 28.6274 34 22H32ZM22 12C27.5228 12 32 16.4772 32 22H34C34 15.3726 28.6274 10 22 10V12ZM12 22C12 16.4772 16.4772 12 22 12V10C15.3726 10 10 15.3726 10 22H12ZM22 32C16.4772 32 12 27.5228 12 22H10C10 28.6274 15.3726 34 22 34V32ZM37 39C38.1046 39 39 38.1046 39 37H37V39ZM5 37C5 38.1046 5.89543 39 7 39V37H5ZM37 7H39C39 5.89543 38.1046 5 37 5V7ZM7 5C5.89543 5 5 5.89543 5 7H7V5Z" fill="black" mask="url(#path-1-inside-1)"/>
<path d="M34.5 22L9.5 22" stroke="black" stroke-width="2"/>
<path d="M22 34.5L22 9.5" stroke="black" stroke-width="2"/>
</svg>
