<svg width="44" height="44" viewBox="0 0 44 44" fill="none" xmlns="http://www.w3.org/2000/svg">
<mask id="path-1-inside-1" fill="white">
<path fill-rule="evenodd" clip-rule="evenodd" d="M9 8C8.44772 8 8 8.44771 8 9V35C8 35.5523 8.44771 36 9 36H35C35.5523 36 36 35.5523 36 35V9C36 8.44772 35.5523 8 35 8H9ZM22 10C15.3726 10 10 15.3726 10 22C10 28.6274 15.3726 34 22 34C28.6274 34 34 28.6274 34 22C34 15.3726 28.6274 10 22 10Z"/>
</mask>
<path fill-rule="evenodd" clip-rule="evenodd" d="M9 8C8.44772 8 8 8.44771 8 9V35C8 35.5523 8.44771 36 9 36H35C35.5523 36 36 35.5523 36 35V9C36 8.44772 35.5523 8 35 8H9ZM22 10C15.3726 10 10 15.3726 10 22C10 28.6274 15.3726 34 22 34C28.6274 34 34 28.6274 34 22C34 15.3726 28.6274 10 22 10Z" fill="black"/>
<path d="M9 9V9V7C7.89543 7 7 7.89543 7 9H9ZM9 35V9H7V35H9ZM9 35H9H7C7 36.1046 7.89543 37 9 37V35ZM35 35H9V37H35V35ZM35 35V37C36.1046 37 37 36.1046 37 35H35ZM35 9V35H37V9H35ZM35 9H37C37 7.89543 36.1046 7 35 7V9ZM9 9H35V7H9V9ZM11 22C11 15.9249 15.9249 11 22 11V9C14.8203 9 9 14.8203 9 22H11ZM22 33C15.9249 33 11 28.0751 11 22H9C9 29.1797 14.8203 35 22 35V33ZM33 22C33 28.0751 28.0751 33 22 33V35C29.1797 35 35 29.1797 35 22H33ZM22 11C28.0751 11 33 15.9249 33 22H35C35 14.8203 29.1797 9 22 9V11Z" fill="black" mask="url(#path-1-inside-1)"/>
<path d="M21.2207 11.5676C21.4116 10.741 22.5888 10.741 22.7797 11.5676L27.7695 33.1739C27.8852 33.6752 27.5045 34.1539 26.99 34.1539H17.0105C16.496 34.1539 16.1152 33.6752 16.231 33.1739L21.2207 11.5676Z" fill="black"/>
<rect x="12" y="32.8076" width="20" height="1.53846" rx="0.769231" fill="black"/>
<path d="M14.3076 12.8076L21.9999 18.9615L30.0768 12.8076" stroke="black" stroke-width="2" stroke-linecap="round" stroke-linejoin="round"/>
</svg>
