<svg width="44" height="44" viewBox="0 0 44 44" fill="none" xmlns="http://www.w3.org/2000/svg">
<path d="M26.4171 32.5305C26.4604 32.7754 26.272 33 26.0232 33L17.9768 33C17.728 33 17.5396 32.7754 17.5829 32.5305L18.9028 25.051C18.9504 24.7809 19.2509 24.6342 19.4986 24.752C20.1213 25.0483 21.2017 25.5 22 25.5C22.7983 25.5 23.8787 25.0483 24.5014 24.752C24.7491 24.6342 25.0496 24.7809 25.0972 25.051L26.4171 32.5305Z" fill="black"/>
<path d="M26.4171 11.4695C26.4604 11.2246 26.272 11 26.0232 11L17.9768 11C17.728 11 17.5396 11.2246 17.5829 11.4695L18.9028 18.949C18.9504 19.2191 19.2509 19.3658 19.4986 19.248C20.1213 18.9517 21.2017 18.5 22 18.5C22.7983 18.5 23.8787 18.9517 24.5014 19.248C24.7491 19.3658 25.0496 19.2191 25.0972 18.949L26.4171 11.4695Z" fill="black"/>
<path d="M11.4695 26.4171C11.2246 26.4604 11 26.272 11 26.0232L11 17.9768C11 17.728 11.2246 17.5396 11.4695 17.5829L18.949 18.9028C19.2191 18.9504 19.3658 19.2509 19.248 19.4986C18.9517 20.1213 18.5 21.2017 18.5 22C18.5 22.7983 18.9517 23.8787 19.248 24.5014C19.3658 24.7491 19.2191 25.0496 18.949 25.0972L11.4695 26.4171Z" fill="black"/>
<path d="M32.5305 26.4171C32.7754 26.4604 33 26.272 33 26.0232L33 17.9768C33 17.728 32.7754 17.5396 32.5305 17.5829L25.051 18.9028C24.7809 18.9504 24.6342 19.2509 24.752 19.4986C25.0483 20.1213 25.5 21.2017 25.5 22C25.5 22.7983 25.0483 23.8787 24.752 24.5014C24.6342 24.7491 24.7809 25.0496 25.051 25.0972L32.5305 26.4171Z" fill="black"/>
<circle cx="22" cy="22" r="3.5" fill="black" stroke="black"/>
</svg>
