<svg width="26" height="26" viewBox="0 0 26 26" fill="none" xmlns="http://www.w3.org/2000/svg">
<ellipse cx="5.27332" cy="13.323" rx="4.27332" ry="4.32301" fill="#0080FF"/>
<path d="M13.0621 13.5218L9.36232 12.1561C8.27342 11.7541 7.23409 12.8539 7.6969 13.9184C7.86054 14.2948 8.19 14.5736 8.59027 14.6642C9.45265 14.8594 11.052 15.1965 12.4783 15.3602C12.6721 15.3825 12.9265 15.3932 13.1968 15.3968C14.2987 15.4115 15.3797 15.1306 16.3867 14.6828L19.6928 13.2126C19.888 13.1258 20.0969 13.0741 20.3101 13.0599C20.5783 13.042 20.8406 13.1438 21.0265 13.338L22.8407 15.2327C22.9187 15.3142 23.0266 15.3602 23.1394 15.3602H24.5529C24.7999 15.3602 25.0001 15.16 25.0001 14.913C25.0001 14.666 24.7999 14.4658 24.5529 14.4658H23.261L21.8594 12.9275C21.441 12.4683 21.1416 12.1265 20.5204 12.1247C20.2792 12.1239 19.8195 12.2238 19.592 12.3039C18.0224 12.8568 15.8762 13.3723 14.709 13.636C14.1603 13.76 13.5898 13.7166 13.0621 13.5218Z" fill="#0080FF"/>
</svg>
