<svg width="26" height="35" viewBox="0 0 26 35" fill="none" xmlns="http://www.w3.org/2000/svg">
<circle cx="13" cy="28" r="5.5" stroke="#0080FF"/>
<path d="M13 3.5V22.5" stroke="#0080FF"/>
<circle cx="13" cy="28" r="1" fill="#0080FF"/>
<path d="M13 4V22.4996" stroke="#0080FF"/>
<path d="M4 5L5.88525 3.11475C5.96125 3.03875 6.04901 2.97549 6.14515 2.92743L7.55279 2.22361C7.83431 2.08284 8.16569 2.08284 8.44721 2.22361L13 4.5" stroke="#0080FF" stroke-linecap="round"/>
<path d="M6 9L6.88525 8.11475C6.96125 8.03875 7.04901 7.97549 7.14515 7.92743L8.60997 7.19502C8.85868 7.07066 9.14794 7.05548 9.4083 7.15311L13 8.5" stroke="#0080FF" stroke-linecap="round"/>
<path d="M22 5L20.1147 3.11475C20.0387 3.03875 19.951 2.97549 19.8549 2.92743L18.4472 2.22361C18.1657 2.08284 17.8343 2.08284 17.5528 2.22361L13 4.5" stroke="#0080FF" stroke-linecap="round"/>
<path d="M20 9L19.1147 8.11475C19.0387 8.03875 18.951 7.97549 18.8549 7.92743L17.39 7.19502C17.1413 7.07066 16.8521 7.05548 16.5917 7.15311L13 8.5" stroke="#0080FF" stroke-linecap="round"/>
<circle cx="13" cy="28" r="5.5" stroke="#0080FF"/>
<circle cx="13" cy="28" r="1" fill="#0080FF"/>
</svg>
