<svg width="25" height="25" viewBox="0 0 25 25" fill="none" xmlns="http://www.w3.org/2000/svg">
<circle cx="13" cy="5" r="1.5" stroke="black"/>
<path d="M11 9L15 9" stroke="black" stroke-linecap="round"/>
<path d="M13 7V21" stroke="black" stroke-linecap="round"/>
<path d="M6.59714 17.36L7.38242 15.8282L8.50456 17.1335" stroke="black" stroke-linecap="round" stroke-linejoin="round"/>
<path fill-rule="evenodd" clip-rule="evenodd" d="M7.50021 16.4287C7.69745 16.4287 7.85735 16.5886 7.85735 16.7859C7.85735 17.1125 8.00136 17.643 8.46345 18.0923C8.91878 18.535 9.71498 18.9287 11.0716 18.9287C11.2689 18.9287 12.8574 18.9287 12.8574 18.9287C12.8574 19.126 12.8574 21.4287 12.8574 21.4287C10.0002 20.3573 8.58163 19.2034 7.96554 18.6044C7.3562 18.012 7.14307 17.2926 7.14307 16.7859C7.14307 16.5886 7.30296 16.4287 7.50021 16.4287Z" fill="black"/>
<path d="M19.1172 17.36L18.3319 15.8282L17.2098 17.1335" stroke="black" stroke-linecap="round" stroke-linejoin="round"/>
<path fill-rule="evenodd" clip-rule="evenodd" d="M18.2141 16.4287C18.0169 16.4287 17.857 16.5886 17.857 16.7859C17.857 17.1125 17.713 17.643 17.2509 18.0923C16.7956 18.535 15.9994 18.9287 14.6427 18.9287C14.4455 18.9287 12.857 18.9287 12.857 18.9287C12.857 19.126 12.857 21.4287 12.857 21.4287C15.7141 20.3573 17.1327 19.2034 17.7488 18.6044C18.3582 18.012 18.5713 17.2926 18.5713 16.7859C18.5713 16.5886 18.4114 16.4287 18.2141 16.4287Z" fill="black"/>
<ellipse cx="13" cy="19.5" rx="1" ry="0.5" fill="black"/>
</svg>
