<svg width="61" height="28" viewBox="0 0 61 28" fill="none" xmlns="http://www.w3.org/2000/svg">
<rect x="28" y="8" width="6" height="4" rx="0.2" fill="black"/>
<path d="M39.8035 12.4257L40.7114 12.8448V12.8448L39.8035 12.4257ZM37.0804 18.3257L37.9883 18.7448L37.9883 18.7448L37.0804 18.3257ZM31.261 18.4975L31.3895 17.5058L31.261 17.4891L31.1324 17.5058L31.261 18.4975ZM24.9195 18.3257L24.0115 18.7448L24.0115 18.7448L24.9195 18.3257ZM22.1964 12.4257L21.2885 12.8448L22.1964 12.4257ZM31.2999 11H22.4688V13H31.2999V11ZM31.2999 13H31.676V11H31.2999V13ZM31.676 13H39.5311V11H31.676V13ZM39.5311 13C39.0202 13 38.6814 12.4705 38.8955 12.0067L40.7114 12.8448C41.109 11.9834 40.4798 11 39.5311 11V13ZM38.8955 12.0067L36.1724 17.9067L37.9883 18.7448L40.7114 12.8448L38.8955 12.0067ZM36.1724 17.9067C36.2868 17.6588 36.535 17.5 36.808 17.5V19.5C37.3151 19.5 37.7758 19.2052 37.9883 18.7448L36.1724 17.9067ZM36.808 17.5H31.2999V19.5H36.808V17.5ZM31.2999 17.5C31.3298 17.5 31.3598 17.5019 31.3895 17.5058L31.1325 19.4892C31.1877 19.4964 31.2437 19.5 31.2999 19.5V17.5ZM31.2221 19.5C31.2784 19.5 31.3344 19.4964 31.3896 19.4892L31.1324 17.5058C31.1622 17.5019 31.1921 17.5 31.2221 17.5V19.5ZM25.1919 19.5H31.2221V17.5H25.1919V19.5ZM24.0115 18.7448C24.224 19.2052 24.6848 19.5 25.1919 19.5V17.5C25.4649 17.5 25.713 17.6588 25.8275 17.9067L24.0115 18.7448ZM21.2885 12.8448L24.0115 18.7448L25.8275 17.9067L23.1044 12.0067L21.2885 12.8448ZM22.4688 11C21.5201 11 20.8909 11.9834 21.2885 12.8448L23.1044 12.0067C23.3185 12.4705 22.9797 13 22.4688 13V11Z" fill="black"/>
<path d="M17.5 13H6" stroke="black" stroke-width="2" stroke-linecap="round"/>
<path d="M56.5 13H45" stroke="black" stroke-width="2" stroke-linecap="round"/>
</svg>
