<svg width="53" height="21" viewBox="0 0 53 21" fill="none" xmlns="http://www.w3.org/2000/svg">
<path d="M5.9924 10.5652H11.3137L18.2091 11.7722L24.597 12.3311L31.5437 11.2133L36.4943 8.73797M5.9924 10.5652L2 12.9699M5.9924 10.5652L8.22814 7.38055L10.2243 6.66192M39.9278 3.54785L36.4943 8.73797M36.4943 8.73797L40.7262 7.38055L44.5589 8.09918M44.5589 8.09918L46.4753 6.10298L51.1065 5.54405M44.5589 8.09918L47.3536 9.1372L51.1065 12.7304" stroke="black" stroke-linecap="round"/>
<path d="M11.314 10.5646L16.352 6.03042M16.352 6.03042L19.1674 4.51901M16.352 6.03042H19.8786L22.6008 7.93916L29.9468 7.46007M19.1674 4.51901L21.8938 2L26.5134 2.19011M19.1674 4.51901L21.8938 4.10646L25.9544 4.82509L29.2282 4.346L31.943 2.98859" stroke="black" stroke-linecap="round"/>
<path d="M42.1634 4.58545L38.4904 5.78317M31.7832 11.133L33.46 12.4105L35.7756 13.5284M44.1596 15.6045H39.4486L35.7756 13.5284M39.6083 12.4105L35.7756 13.5284" stroke="black" stroke-linecap="round"/>
<path d="M38.7303 17.9999L35.3766 17.3612L33.62 12.4904M26.8329 14.6463L23.7987 15.4448L18.369 14.0075M18.369 14.0075L16.1333 11.3726M18.369 14.0075L22.5211 16.7224L27.5516 17.9999" stroke="black" stroke-linecap="round"/>
</svg>
