<svg width="27" height="27" viewBox="0 0 27 27" fill="none" xmlns="http://www.w3.org/2000/svg">
<path d="M12.7392 4.34164C12.9786 3.60459 14.0214 3.60459 14.2608 4.34164L16.1268 10.0845C16.2339 10.4141 16.5411 10.6373 16.8877 10.6373H22.9261C23.701 10.6373 24.0233 11.629 23.3963 12.0845L18.5111 15.6338C18.2307 15.8375 18.1134 16.1986 18.2205 16.5282L20.0865 22.2711C20.326 23.0081 19.4824 23.621 18.8554 23.1655L13.9702 19.6162C13.6898 19.4125 13.3102 19.4125 13.0298 19.6162L8.1446 23.1655C7.51763 23.621 6.67405 23.0081 6.91353 22.2711L8.7795 16.5282C8.8866 16.1986 8.76927 15.8375 8.48888 15.6338L3.60371 12.0845C2.97674 11.629 3.29896 10.6373 4.07394 10.6373H10.1123C10.4589 10.6373 10.7661 10.4141 10.8732 10.0845L12.7392 4.34164Z" fill="#C4C4C4"/>
</svg>
