<svg width="32" height="27" viewBox="0 0 32 27" fill="none" xmlns="http://www.w3.org/2000/svg">
<path d="M14.6202 10.505C14.981 9.74112 16.0678 9.74112 16.4286 10.505L18.7474 15.4137C19.0607 16.0771 18.5768 16.8408 17.8432 16.8408H13.2056C12.472 16.8408 11.9881 16.0771 12.3014 15.4137L14.6202 10.505Z" fill="#0080FF"/>
<path d="M21.1118 15.6446C20.2822 15.5259 19.9578 14.5005 20.5683 13.9263L24.6201 10.115C25.1568 9.61025 26.0365 9.83939 26.2587 10.5418L27.7135 15.1406C27.9357 15.8431 27.3478 16.5365 26.6184 16.4322L21.1118 15.6446Z" fill="#0080FF"/>
<path d="M10.3631 15.2349C10.6223 16.0319 9.84494 16.7751 9.06037 16.4803L3.85321 14.5237C3.16354 14.2646 2.98138 13.3739 3.51391 12.8648L7.00035 9.53161C7.53288 9.02248 8.41444 9.24447 8.64234 9.94509L10.3631 15.2349Z" fill="#0080FF"/>
</svg>
