<svg width="27" height="27" viewBox="0 0 27 27" fill="none" xmlns="http://www.w3.org/2000/svg">
<path d="M12.9294 6.75623C13.109 6.20344 13.891 6.20344 14.0706 6.75623L15.4982 11.1497C15.5785 11.397 15.8089 11.5643 16.0688 11.5643H20.6884C21.2697 11.5643 21.5113 12.3081 21.0411 12.6497L17.3037 15.3651C17.0935 15.5179 17.0055 15.7887 17.0858 16.0359L18.5133 20.4294C18.6929 20.9822 18.0602 21.4419 17.59 21.1003L13.8527 18.3849C13.6424 18.2321 13.3576 18.2321 13.1473 18.3849L9.40998 21.1003C8.93975 21.4419 8.30706 20.9822 8.48667 20.4294L9.91421 16.0359C9.99454 15.7887 9.90654 15.5179 9.69625 15.3651L5.9589 12.6497C5.48867 12.3081 5.73034 11.5643 6.31157 11.5643H10.9312C11.1911 11.5643 11.4215 11.397 11.5018 11.1497L12.9294 6.75623Z" fill="black"/>
</svg>
