<svg width="60" height="18" viewBox="0 0 60 18" fill="none" xmlns="http://www.w3.org/2000/svg">
<rect x="27" y="4" width="6" height="3" rx="0.2" fill="black"/>
<path d="M38.8035 7.42572L39.2574 7.63525V7.63525L38.8035 7.42572ZM36.0804 13.3257L36.5344 13.5352L36.5344 13.5352L36.0804 13.3257ZM30.261 13.4975L30.3253 13.0016L30.261 12.9933L30.1967 13.0016L30.261 13.4975ZM23.9195 13.3257L23.4655 13.5352L23.4655 13.5352L23.9195 13.3257ZM21.1964 7.42572L20.7424 7.63525L21.1964 7.42572ZM30.2999 6.5H21.4688V7.5H30.2999V6.5ZM30.2999 7.5H30.676V6.5H30.2999V7.5ZM30.676 7.5H38.5311V6.5H30.676V7.5ZM38.5311 7.5C38.3851 7.5 38.2883 7.34871 38.3495 7.21619L39.2574 7.63525C39.5021 7.10515 39.1149 6.5 38.5311 6.5V7.5ZM38.3495 7.21619L35.6264 13.1162L36.5344 13.5352L39.2574 7.63525L38.3495 7.21619ZM35.6264 13.1162C35.6591 13.0454 35.73 13 35.808 13V14C36.12 14 36.4036 13.8186 36.5344 13.5352L35.6264 13.1162ZM35.808 13H30.2999V14H35.808V13ZM30.2999 13C30.3083 13 30.3168 13.0005 30.3253 13.0016L30.1968 13.9934C30.2307 13.9978 30.2652 14 30.2999 14V13ZM30.2221 14C30.2569 14 30.2913 13.9978 30.3253 13.9933L30.1967 13.0016C30.2052 13.0005 30.2137 13 30.2221 13V14ZM24.1919 14H30.2221V13H24.1919V14ZM23.4655 13.5352C23.5963 13.8186 23.8798 14 24.1919 14V13C24.2699 13 24.3408 13.0454 24.3735 13.1162L23.4655 13.5352ZM20.7424 7.63525L23.4655 13.5352L24.3735 13.1162L21.6504 7.21619L20.7424 7.63525ZM21.4688 6.5C20.885 6.5 20.4978 7.10515 20.7424 7.63525L21.6504 7.21619C21.7116 7.34871 21.6148 7.5 21.4688 7.5V6.5Z" fill="black"/>
<path d="M16.5 8H5" stroke="black" stroke-linecap="round"/>
<path d="M55.5 8H44" stroke="black" stroke-linecap="round"/>
</svg>
