<svg width="26" height="26" viewBox="0 0 26 26" fill="none" xmlns="http://www.w3.org/2000/svg">
<path d="M13 3V23.5H19.5" stroke="black" stroke-linecap="round"/>
<path d="M16.5 5C16.5 3 14.1667 2.5 13 2.5V18.5C15 18.6667 19 18.4 19 16C19 13.6 16.3333 13.3333 15 13.5C15.8333 13.3333 17.5 12.5 17.5 10.5C17.5 8.5 15.8333 7.66667 15 7.5C15.5 7.16667 16.5 7 16.5 5Z" fill="black" stroke="black"/>
<path d="M9.5 5C9.5 3 11.8333 2.5 13 2.5V18.5C11 18.6667 7 18.4 7 16C7 13.6 9.66667 13.3333 11 13.5C10.1667 13.3333 8.5 12.5 8.5 10.5C8.5 8.5 10.1667 7.66667 11 7.5C10.5 7.16667 9.5 7 9.5 5Z" stroke="black" stroke-linecap="round" stroke-linejoin="round"/>
</svg>
