<svg width="31" height="26" viewBox="0 0 31 26" fill="none" xmlns="http://www.w3.org/2000/svg">
<path d="M22 2.5V23H28" stroke="black" stroke-linecap="round"/>
<path d="M25.5 4.5C25.5 2.5 23.1667 2 22 2V18C24 18.1667 28 17.9 28 15.5C28 13.1 25.3333 12.8333 24 13C24.8333 12.8333 26.5 12 26.5 10C26.5 8 24.8333 7.16667 24 7C24.5 6.66667 25.5 6.5 25.5 4.5Z" fill="black" stroke="black"/>
<path d="M18.5 4.5C18.5 2.5 20.8333 2 22 2V18C20 18.1667 16 17.9 16 15.5C16 13.1 18.6667 12.8333 20 13C19.1667 12.8333 17.5 12 17.5 10C17.5 8 19.1667 7.16667 20 7C19.5 6.66667 18.5 6.5 18.5 4.5Z" stroke="black" stroke-linecap="round" stroke-linejoin="round"/>
<path d="M10 2V23H16" stroke="black" stroke-linecap="round"/>
<path d="M6.5 5.58539L10 3.02441L13.5 5.58539" stroke="black" stroke-linecap="round" stroke-linejoin="round"/>
<path d="M4.5 13.2683L10 9.68292L15 13.2683" stroke="black" stroke-linecap="round" stroke-linejoin="round"/>
<path d="M4 20.439L10 15.8292L16 20.439" stroke="black" stroke-linecap="round" stroke-linejoin="round"/>
</svg>
