<svg width="50" height="50" viewBox="0 0 50 50" fill="none" xmlns="http://www.w3.org/2000/svg">
<path d="M16 47L16 41" stroke="#0080FF" stroke-linecap="round" stroke-linejoin="round"/>
<path d="M16 35L16 25" stroke="#0080FF" stroke-linecap="round" stroke-linejoin="round"/>
<path d="M16 21L16 5" stroke="#0080FF" stroke-linecap="round" stroke-linejoin="round"/>
<path d="M35 24L35 8" stroke="#0080FF" stroke-linecap="round" stroke-linejoin="round"/>
<path d="M35 45L35 29" stroke="#0080FF" stroke-linecap="round" stroke-linejoin="round"/>
<path d="M41 42L41 26" stroke="#0080FF" stroke-linecap="round" stroke-linejoin="round"/>
<path d="M41 20L41 4" stroke="#0080FF" stroke-linecap="round" stroke-linejoin="round"/>
<path d="M47 24L47 8" stroke="#0080FF" stroke-linecap="round" stroke-linejoin="round"/>
<path d="M47 48L47 32" stroke="#0080FF" stroke-linecap="round" stroke-linejoin="round"/>
<path d="M10 15L10 5" stroke="#0080FF" stroke-linecap="round" stroke-linejoin="round"/>
<path d="M10 40L10 24" stroke="#0080FF" stroke-linecap="round" stroke-linejoin="round"/>
<path d="M29 18L29 2" stroke="#0080FF" stroke-linecap="round" stroke-linejoin="round"/>
<path d="M29 46L29 22" stroke="#0080FF" stroke-linecap="round" stroke-linejoin="round"/>
<path d="M4 44L4 32" stroke="#0080FF" stroke-linecap="round" stroke-linejoin="round"/>
<path d="M4 26L4 2" stroke="#0080FF" stroke-linecap="round" stroke-linejoin="round"/>
<path d="M22 45L22 35" stroke="#0080FF" stroke-linecap="round" stroke-linejoin="round"/>
<path d="M22 30L22 6" stroke="#0080FF" stroke-linecap="round" stroke-linejoin="round"/>
</svg>
