<svg width="27" height="27" viewBox="0 0 27 27" fill="none" xmlns="http://www.w3.org/2000/svg">
<circle cx="14" cy="7" r="1" fill="#933200"/>
<circle cx="14" cy="21" r="1" fill="#933200"/>
<circle cx="19.3664" cy="18.366" r="1" transform="rotate(120 19.3664 18.366)" fill="#933200"/>
<circle cx="8.3664" cy="9.36602" r="1" transform="rotate(120 8.3664 9.36602)" fill="#933200"/>
<circle cx="19.3664" cy="9.36602" r="1" transform="rotate(60 19.3664 9.36602)" fill="#933200"/>
<circle cx="8.3664" cy="18.366" r="1" transform="rotate(60 8.3664 18.366)" fill="#933200"/>
<circle cx="21" cy="14" r="1" transform="rotate(90 21 14)" fill="#933200"/>
<circle cx="7" cy="14" r="1" transform="rotate(90 7 14)" fill="#933200"/>
<circle cx="18" cy="22" r="2" fill="#933200"/>
<circle cx="22.8281" cy="16.8284" r="2" transform="rotate(45 22.8281 16.8284)" fill="#933200"/>
<circle cx="22.8281" cy="10.8284" r="2" transform="rotate(45 22.8281 10.8284)" fill="#933200"/>
<circle cx="17.8281" cy="5.82843" r="2" transform="rotate(45 17.8281 5.82843)" fill="#933200"/>
<circle cx="9.82812" cy="5.82843" r="2" transform="rotate(45 9.82812 5.82843)" fill="#933200"/>
<circle cx="4.82812" cy="10.8284" r="2" transform="rotate(45 4.82812 10.8284)" fill="#933200"/>
<circle cx="4.82812" cy="16.8284" r="2" transform="rotate(45 4.82812 16.8284)" fill="#933200"/>
<circle cx="9.82843" cy="21.8281" r="2" transform="rotate(-45 9.82843 21.8281)" fill="#933200"/>
<circle cx="14.0004" cy="9.45455" r="0.454545" fill="#933200"/>
<circle cx="14.0004" cy="18.5454" r="0.454545" fill="#933200"/>
<circle cx="15.1759" cy="9.60944" r="0.454545" transform="rotate(15 15.1759 9.60944)" fill="#933200"/>
<circle cx="12.8234" cy="18.3907" r="0.454545" transform="rotate(15 12.8234 18.3907)" fill="#933200"/>
<circle cx="16.2728" cy="10.0633" r="0.454545" transform="rotate(30 16.2728 10.0633)" fill="#933200"/>
<circle cx="17.2139" cy="10.7854" r="0.454545" transform="rotate(45 17.2139 10.7854)" fill="#933200"/>
<circle cx="11.7269" cy="17.9363" r="0.454545" transform="rotate(30 11.7269 17.9363)" fill="#933200"/>
<circle cx="10.7861" cy="17.2141" r="0.454545" transform="rotate(45 10.7861 17.2141)" fill="#933200"/>
<circle cx="17.9362" cy="11.7274" r="0.454545" transform="rotate(60 17.9362 11.7274)" fill="#933200"/>
<circle cx="10.0631" cy="16.2723" r="0.454545" transform="rotate(60 10.0631 16.2723)" fill="#933200"/>
<circle cx="18.3905" cy="12.8233" r="0.454545" transform="rotate(75 18.3905 12.8233)" fill="#933200"/>
<circle cx="9.60925" cy="15.1768" r="0.454545" transform="rotate(75 9.60925 15.1768)" fill="#933200"/>
<circle cx="18.5455" cy="13.9995" r="0.454545" transform="rotate(90 18.5455 13.9995)" fill="#933200"/>
<circle cx="9.45463" cy="14.0004" r="0.454545" transform="rotate(90 9.45463 14.0004)" fill="#933200"/>
<circle cx="18.3906" cy="15.1759" r="0.454545" transform="rotate(105 18.3906 15.1759)" fill="#933200"/>
<circle cx="9.60931" cy="12.8234" r="0.454545" transform="rotate(105 9.60931 12.8234)" fill="#933200"/>
<circle cx="17.9367" cy="16.2718" r="0.454545" transform="rotate(120 17.9367 16.2718)" fill="#933200"/>
<circle cx="10.0637" cy="11.7279" r="0.454545" transform="rotate(120 10.0637 11.7279)" fill="#933200"/>
<circle cx="17.2146" cy="17.2139" r="0.454545" transform="rotate(135 17.2146 17.2139)" fill="#933200"/>
<circle cx="10.7859" cy="10.7861" r="0.454545" transform="rotate(135 10.7859 10.7861)" fill="#933200"/>
<circle cx="16.2736" cy="17.9362" r="0.454545" transform="rotate(150 16.2736 17.9362)" fill="#933200"/>
<circle cx="11.7267" cy="10.0641" r="0.454545" transform="rotate(150 11.7267 10.0641)" fill="#933200"/>
<circle cx="15.1767" cy="18.3905" r="0.454545" transform="rotate(165 15.1767 18.3905)" fill="#933200"/>
<circle cx="12.8232" cy="9.60925" r="0.454545" transform="rotate(165 12.8232 9.60925)" fill="#933200"/>
</svg>
