<svg width="27" height="27" viewBox="0 0 27 27" fill="none" xmlns="http://www.w3.org/2000/svg">
<path d="M11.6667 16.9998V14.6468C11.6667 14.4725 11.6211 14.3011 11.5344 14.1498L10.7859 12.8429C10.7075 12.706 10.5979 12.5897 10.4659 12.5033L8 10.8887" stroke="black" stroke-linecap="round" stroke-linejoin="round"/>
<path d="M15.3333 16.9998V14.6468C15.3333 14.4725 15.3789 14.3011 15.4656 14.1498L16.2141 12.8429C16.2925 12.706 16.4021 12.5897 16.5341 12.5033L19 10.8887" stroke="black" stroke-linecap="round" stroke-linejoin="round"/>
<path d="M11.667 7.65165L12.831 6.603C13.2114 6.26029 13.7892 6.26029 14.1697 6.603L15.3337 7.65165L14.3096 17.4928C14.2664 17.9073 13.9171 18.2222 13.5003 18.2222C13.0836 18.2222 12.7342 17.9073 12.6911 17.4928L11.667 7.65165Z" fill="black"/>
<path d="M9 20.5H18" stroke="#0080FF" stroke-linecap="round" stroke-linejoin="round"/>
</svg>
