<svg width="55" height="55" viewBox="0 0 55 55" fill="none" xmlns="http://www.w3.org/2000/svg">
<path d="M16 19C16 15.6863 13.3137 13 10 13C6.68629 13 4 15.6863 4 19" stroke="black"/>
<path d="M49 43C49 39.6863 46.3137 37 43 37C39.6863 37 37 39.6863 37 43" stroke="black"/>
<path d="M16 18C15.7239 18 15.5 18.2239 15.5 18.5C15.5 18.7761 15.7239 19 16 19V18ZM19 19C19.2761 19 19.5 18.7761 19.5 18.5C19.5 18.2239 19.2761 18 19 18V19ZM16 19H19V18H16V19Z" fill="black"/>
<path d="M49 42C48.7239 42 48.5 42.2239 48.5 42.5C48.5 42.7761 48.7239 43 49 43V42ZM52 43C52.2761 43 52.5 42.7761 52.5 42.5C52.5 42.2239 52.2761 42 52 42V43ZM49 43H52V42H49V43Z" fill="black"/>
</svg>
