<svg width="49" height="49" viewBox="0 0 49 49" fill="none" xmlns="http://www.w3.org/2000/svg">
<path d="M2 34L8 34" stroke="#0080FF" stroke-linecap="round" stroke-linejoin="round"/>
<path d="M40 34L46 34" stroke="#0080FF" stroke-linecap="round" stroke-linejoin="round"/>
<path d="M19 34L29 34" stroke="#0080FF" stroke-linecap="round" stroke-linejoin="round"/>
<path d="M33 19L43 19" stroke="#0080FF" stroke-linecap="round" stroke-linejoin="round"/>
<path d="M5 19L21 19" stroke="#0080FF" stroke-linecap="round" stroke-linejoin="round"/>
<path d="M6 4L16 4" stroke="#0080FF" stroke-linecap="round" stroke-linejoin="round"/>
<path d="M29 4L45 4" stroke="#0080FF" stroke-linecap="round" stroke-linejoin="round"/>
<path d="M44 39L47 39" stroke="#0080FF" stroke-linecap="round" stroke-linejoin="round"/>
<path d="M1 39L11 39" stroke="#0080FF" stroke-linecap="round" stroke-linejoin="round"/>
<path d="M18 39L34 39" stroke="#0080FF" stroke-linecap="round" stroke-linejoin="round"/>
<path d="M2 44L8 44" stroke="#0080FF" stroke-linecap="round" stroke-linejoin="round"/>
<path d="M41 44L47 44" stroke="#0080FF" stroke-linecap="round" stroke-linejoin="round"/>
<path d="M18 44L34 44" stroke="#0080FF" stroke-linecap="round" stroke-linejoin="round"/>
<path d="M36 14L46 14" stroke="#0080FF" stroke-linecap="round" stroke-linejoin="round"/>
<path d="M3 14L23 14" stroke="#0080FF" stroke-linecap="round" stroke-linejoin="round"/>
<path d="M14 29L34 29" stroke="#0080FF" stroke-linecap="round" stroke-linejoin="round"/>
<path d="M6 24L41 24" stroke="#0080FF" stroke-linecap="round" stroke-linejoin="round"/>
<path d="M30 9L46 9" stroke="#0080FF" stroke-linecap="round" stroke-linejoin="round"/>
<path d="M3 9L23 9" stroke="#0080FF" stroke-linecap="round" stroke-linejoin="round"/>
</svg>
