<svg width="26" height="26" viewBox="0 0 26 26" fill="none" xmlns="http://www.w3.org/2000/svg">
<path d="M7.5 24H17.5" stroke="black" stroke-linecap="round"/>
<path d="M12.5 24C13.3333 20.3333 13.8 10.9 11 6.5" stroke="black" stroke-linecap="round"/>
<path d="M12.9995 22C13.8318 20.4939 17.0749 16.4517 19.3926 15.8318" stroke="black" stroke-linecap="round"/>
<path d="M9.5 6.0001C4.7 8.0001 3.5 13.5001 3.5 16.0001C5.9 8.80018 10.1667 6.66673 12 6.5C17.6 5.3 20.3333 8.33333 21 10C19.8 5.6 15.1667 4.8334 13 5.0001C14.2 1.40018 19.8333 2.8334 22.5 4C21.8333 3.16667 19.6 1.5 16 1.5C12.4 1.5 10.8333 3.8334 10.5 5.0001C8.5 2.20015 4.66667 3.83345 3 5.0001C6.2 3.4001 8.66667 5.0001 9.5 6.0001Z" fill="black" stroke="black" stroke-linecap="round" stroke-linejoin="round"/>
<path d="M19.7322 15.9522C20.642 17.8849 19.4852 19.9056 18.7931 20.6745C20.0546 17.8015 19.3444 15.9743 18.8316 15.4197C17.4564 13.5136 15.7832 13.6961 15.1185 14.0257C16.7025 13.0019 18.3275 14.038 18.9419 14.684C19.5727 13.2475 17.4583 12.142 16.3223 11.7688C16.7562 11.6955 17.8986 11.796 18.9963 12.7841C20.0939 13.7723 19.9256 14.9199 19.7042 15.3702C21.0892 15.0581 21.8058 16.6127 21.9909 17.4289C21.4582 16.0585 20.2632 15.8735 19.7322 15.9522Z" fill="black" stroke="black" stroke-linecap="round" stroke-linejoin="round"/>
</svg>
