<svg width="26" height="26" viewBox="0 0 26 26" fill="none" xmlns="http://www.w3.org/2000/svg">
<path d="M8 12.3997C8.45611 11.5497 9.1822 11 10 11C11.3807 11 12.5 12.567 12.5 14.5C12.5 16.433 11.3807 18 10 18C9.31882 18 8.70127 17.6186 8.25036 17" stroke="#933200" stroke-linecap="round" stroke-linejoin="round"/>
<path d="M17.5 12.3997C17.0439 11.5497 16.3178 11 15.5 11C14.1193 11 13 12.567 13 14.5C13 16.433 14.1193 18 15.5 18C16.1812 18 16.7987 17.6186 17.2496 17" stroke="#933200" stroke-linecap="round" stroke-linejoin="round"/>
<path d="M11.5 9C13.5 9.5 12.9 12.5 12.5 14.5" stroke="#933200" stroke-linecap="round" stroke-linejoin="round"/>
</svg>
