<svg width="49" height="49" viewBox="0 0 49 49" fill="none" xmlns="http://www.w3.org/2000/svg">
<path d="M6 14L16 14" stroke="#0080FF" stroke-linecap="round" stroke-linejoin="round"/>
<path d="M20 14L30 14" stroke="#0080FF" stroke-linecap="round" stroke-linejoin="round"/>
<path d="M8 9L18 9" stroke="#0080FF" stroke-linecap="round" stroke-linejoin="round"/>
<path d="M22 9L32 9" stroke="#0080FF" stroke-linecap="round" stroke-linejoin="round"/>
<path d="M36 9L46 9" stroke="#0080FF" stroke-linecap="round" stroke-linejoin="round"/>
<path d="M6 4L12 4" stroke="#0080FF" stroke-linecap="round" stroke-linejoin="round"/>
<path d="M20 4L30 4" stroke="#0080FF" stroke-linecap="round" stroke-linejoin="round"/>
<path d="M34 4L44 4" stroke="#0080FF" stroke-linecap="round" stroke-linejoin="round"/>
<path d="M4 39L10 39" stroke="#0080FF" stroke-linecap="round" stroke-linejoin="round"/>
<path d="M25 39L35 39" stroke="#0080FF" stroke-linecap="round" stroke-linejoin="round"/>
<path d="M31 34L41 34" stroke="#0080FF" stroke-linecap="round" stroke-linejoin="round"/>
<path d="M7 34L17 34" stroke="#0080FF" stroke-linecap="round" stroke-linejoin="round"/>
<path d="M4 24L14 24" stroke="#0080FF" stroke-linecap="round" stroke-linejoin="round"/>
<path d="M25 24L41 24" stroke="#0080FF" stroke-linecap="round" stroke-linejoin="round"/>
<path d="M9 29L19 29" stroke="#0080FF" stroke-linecap="round" stroke-linejoin="round"/>
<path d="M29 29L45 29" stroke="#0080FF" stroke-linecap="round" stroke-linejoin="round"/>
<path d="M3 44L9 44" stroke="#0080FF" stroke-linecap="round" stroke-linejoin="round"/>
<path d="M20 44L40 44" stroke="#0080FF" stroke-linecap="round" stroke-linejoin="round"/>
<path d="M12 19L22 19" stroke="#0080FF" stroke-linecap="round" stroke-linejoin="round"/>
<path d="M28 19L44 19" stroke="#0080FF" stroke-linecap="round" stroke-linejoin="round"/>
</svg>
