<svg width="54" height="55" viewBox="0 0 54 55" fill="none" xmlns="http://www.w3.org/2000/svg">
<path d="M9 13V11.1232C9 10.9489 8.95441 10.7775 8.86776 10.6262L8.30106 9.63677C8.22268 9.49991 8.11304 9.38354 7.98109 9.29714L6 8" stroke="black" stroke-linecap="round" stroke-linejoin="round"/>
<path d="M12 13V11.1232C12 10.9489 12.0456 10.7775 12.1322 10.6262L12.6989 9.63677C12.7773 9.49991 12.887 9.38354 13.0189 9.29714L15 8" stroke="black" stroke-linecap="round" stroke-linejoin="round"/>
<path d="M9 5.35135L9.83067 4.603C10.2111 4.26029 10.7889 4.26029 11.1693 4.603L12 5.35135L11.1621 13.4032C11.1268 13.7424 10.841 14 10.5 14C10.159 14 9.87319 13.7424 9.8379 13.4032L9 5.35135Z" fill="black"/>
<path d="M42 50V48.1232C42 47.9489 41.9544 47.7775 41.8678 47.6262L41.3011 46.6368C41.2227 46.4999 41.113 46.3835 40.9811 46.2971L39 45" stroke="black" stroke-linecap="round" stroke-linejoin="round"/>
<path d="M45 50V48.1232C45 47.9489 45.0456 47.7775 45.1322 47.6262L45.6989 46.6368C45.7773 46.4999 45.887 46.3835 46.0189 46.2971L48 45" stroke="black" stroke-linecap="round" stroke-linejoin="round"/>
<path d="M42 42.3514L42.8307 41.603C43.2111 41.2603 43.7889 41.2603 44.1693 41.603L45 42.3514L44.1621 50.4032C44.1268 50.7424 43.841 51 43.5 51C43.159 51 42.8732 50.7424 42.8379 50.4032L42 42.3514Z" fill="black"/>
</svg>
