<svg width="52" height="53" viewBox="0 0 52 53" fill="none" xmlns="http://www.w3.org/2000/svg">
<path d="M7 9.5V8.28078C7 7.63021 7.63824 7.17849 8.076 7.65974C8.792 8.44687 9 9.63944 9 10V14.5C9 14.7761 8.77614 15 8.5 15C8.22386 15 8 14.7761 8 14.5V10.5C8 10.2239 7.77614 10 7.5 10C7.22386 10 7 9.77614 7 9.5Z" fill="black"/>
<path d="M12 9.5V8.28078C12 7.63021 11.3618 7.17849 10.924 7.65974C10.208 8.44687 10 9.63944 10 10V14.5C10 14.7761 10.2239 15 10.5 15C10.7761 15 11 14.7761 11 14.5V10.5C11 10.2239 11.2239 10 11.5 10C11.7761 10 12 9.77614 12 9.5Z" fill="black"/>
<path d="M40 40.5V39.2808C40 38.6302 40.6382 38.1785 41.076 38.6597C41.792 39.4469 42 40.6394 42 41V45.5C42 45.7761 41.7761 46 41.5 46C41.2239 46 41 45.7761 41 45.5V41.5C41 41.2239 40.7761 41 40.5 41C40.2239 41 40 40.7761 40 40.5Z" fill="black"/>
<path d="M45 40.5V39.2808C45 38.6302 44.3618 38.1785 43.924 38.6597C43.208 39.4469 43 40.6394 43 41V45.5C43 45.7761 43.2239 46 43.5 46C43.7761 46 44 45.7761 44 45.5V41.5C44 41.2239 44.2239 41 44.5 41C44.7761 41 45 40.7761 45 40.5Z" fill="black"/>
</svg>
