<svg width="26" height="26" viewBox="0 0 26 26" fill="none" xmlns="http://www.w3.org/2000/svg">
<path d="M7.5 24H17.5" stroke="black" stroke-linecap="round"/>
<path d="M12.5 24C13.3333 20.3333 13.8 10.9 11 6.5" stroke="black" stroke-linecap="round"/>
<path d="M9.5 6.0001C4.7 8.0001 3.5 13.5001 3.5 16.0001C5.9 8.80018 10.1667 6.66673 12 6.5C17.6 5.3 20.3333 8.33333 21 10C19.8 5.6 15.1667 4.8334 13 5.0001C14.2 1.40018 19.8333 2.8334 22.5 4C21.8333 3.16667 19.6 1.5 16 1.5C12.4 1.5 10.8333 3.8334 10.5 5.0001C8.5 2.20015 4.66667 3.83345 3 5.0001C6.2 3.4001 8.66667 5.0001 9.5 6.0001Z" fill="black" stroke="black" stroke-linecap="round" stroke-linejoin="round"/>
</svg>
