<svg width="59" height="59" viewBox="0 0 59 59" fill="none" xmlns="http://www.w3.org/2000/svg">
<path d="M50.8907 47.2767L50.8961 47.2991L50.9035 47.3208L51.6 49.367L49.7577 50.4975L49.7381 50.5095L49.7197 50.5233L47.9889 51.818L46.3445 50.4152L46.327 50.4003L46.3082 50.387L44.542 49.141L45.368 47.1436L45.3767 47.1223L45.3835 47.1004L46.0228 45.0356L48.1777 45.2039L48.2006 45.2057L48.2236 45.2054L50.3849 45.1753L50.8907 47.2767Z" stroke="#933200"/>
<path d="M10.7959 6.74438L10.8139 6.75873L10.8331 6.77137L12.6383 7.96022L11.8766 9.98307L11.8685 10.0046L11.8624 10.0267L11.2896 12.1109L9.13041 12.0117L9.10745 12.0106L9.08449 12.0117L6.92529 12.1109L6.35245 10.0267L6.34636 10.0046L6.33826 9.98307L5.57665 7.96022L7.38181 6.77137L7.401 6.75873L7.41896 6.74438L9.10745 5.39494L10.7959 6.74438Z" stroke="#933200"/>
</svg>
