<svg width="27" height="27" viewBox="0 0 27 27" fill="none" xmlns="http://www.w3.org/2000/svg">
<path d="M19 4V22H22.75" stroke="black" stroke-linecap="round"/>
<path d="M16.084 7.0733L19.0007 4.87817L21.9173 7.0733" stroke="black" stroke-linecap="round" stroke-linejoin="round"/>
<path d="M14.416 13.6584L18.9993 10.5852L23.166 13.6584" stroke="black" stroke-linecap="round" stroke-linejoin="round"/>
<path d="M14 19.805L19 15.8538L24 19.805" stroke="black" stroke-linecap="round" stroke-linejoin="round"/>
<path d="M8.00098 5V22H23.001" stroke="black" stroke-linecap="round"/>
<path d="M10.5 6.78571C10.5 5.35714 8.83333 5 8 5V16.4286C9.42857 16.5476 12.2857 16.3571 12.2857 14.6429C12.2857 12.9286 10.381 12.7381 9.42857 12.8571C10.0238 12.7381 11.2143 12.1429 11.2143 10.7143C11.2143 9.28571 10.0238 8.69048 9.42857 8.57143C9.78571 8.33333 10.5 8.21429 10.5 6.78571Z" stroke="black" stroke-linecap="round" stroke-linejoin="round"/>
<path d="M5.5 6.78571C5.5 5.35714 7.16667 5 8 5V16.4286C6.57143 16.5476 3.71429 16.3571 3.71429 14.6429C3.71429 12.9286 5.61905 12.7381 6.57143 12.8571C5.97619 12.7381 4.78571 12.1429 4.78571 10.7143C4.78571 9.28571 5.97619 8.69048 6.57143 8.57143C6.21429 8.33333 5.5 8.21429 5.5 6.78571Z" stroke="black" stroke-linecap="round" stroke-linejoin="round"/>
</svg>
