<svg width="26" height="26" viewBox="0 0 26 26" fill="none" xmlns="http://www.w3.org/2000/svg">
<path d="M8.00098 7.35718V22H22.501" stroke="black" stroke-linecap="round"/>
<path d="M10.501 8.78571C10.501 7.35714 8.83431 7 8.00098 7V18.4286C9.42955 18.5476 12.2867 18.3571 12.2867 16.6429C12.2867 14.9286 10.3819 14.7381 9.42955 14.8571C10.0248 14.7381 11.2153 14.1429 11.2153 12.7143C11.2153 11.2857 10.0248 10.6905 9.42955 10.5714C9.78669 10.3333 10.501 10.2143 10.501 8.78571Z" stroke="black" stroke-linecap="round" stroke-linejoin="round"/>
<path d="M5.50098 8.78571C5.50098 7.35714 7.16764 7 8.00098 7V18.4286C6.57241 18.5476 3.71526 18.3571 3.71526 16.6429C3.71526 14.9286 5.62002 14.7381 6.57241 14.8571C5.97717 14.7381 4.78669 14.1429 4.78669 12.7143C4.78669 11.2857 5.97717 10.6905 6.57241 10.5714C6.21526 10.3333 5.50098 10.2143 5.50098 8.78571Z" stroke="black" stroke-linecap="round" stroke-linejoin="round"/>
<path d="M18.2861 7.35718V22H21.5004" stroke="black" stroke-linecap="round"/>
<path d="M20.7861 8.78571C20.7861 7.35714 19.1195 7 18.2861 7V18.4286C19.7147 18.5476 22.5718 18.3571 22.5718 16.6429C22.5718 14.9286 20.6671 14.7381 19.7147 14.8571C20.3099 14.7381 21.5004 14.1429 21.5004 12.7143C21.5004 11.2857 20.3099 10.6905 19.7147 10.5714C20.0718 10.3333 20.7861 10.2143 20.7861 8.78571Z" stroke="black" stroke-linecap="round" stroke-linejoin="round"/>
<path d="M15.7861 8.78571C15.7861 7.35714 17.4528 7 18.2861 7V18.4286C16.8576 18.5476 14.0004 18.3571 14.0004 16.6429C14.0004 14.9286 15.9052 14.7381 16.8576 14.8571C16.2623 14.7381 15.0718 14.1429 15.0718 12.7143C15.0718 11.2857 16.2623 10.6905 16.8576 10.5714C16.5004 10.3333 15.7861 10.2143 15.7861 8.78571Z" stroke="black" stroke-linecap="round" stroke-linejoin="round"/>
</svg>
