<svg width="27" height="27" viewBox="0 0 27 27" fill="none" xmlns="http://www.w3.org/2000/svg">
<mask id="path-1-inside-1" fill="white">
<path fill-rule="evenodd" clip-rule="evenodd" d="M11.5952 5.97752C11.5924 5.8729 11.6224 5.77002 11.6811 5.68338L13.086 3.61059C13.2844 3.31796 13.7155 3.31796 13.9138 3.61059L15.3187 5.68338C15.3774 5.77002 15.4075 5.8729 15.4046 5.97752L15.3169 9.19735C15.3716 9.21345 15.4251 9.23963 15.4752 9.27689L23.839 15.4926C23.9403 15.5679 24 15.6866 24 15.8128C24 16.0842 23.7348 16.2764 23.4768 16.1918L15.2004 13.4782L15.1704 14.5797L14.5749 20.8274L16.2329 22.1037C16.6112 22.3949 16.4052 22.9999 15.9279 22.9999H14V23.9998C14 24.276 13.7761 24.4998 13.5 24.4998C13.2239 24.4998 13 24.276 13 23.9998V22.9999H11.0721C10.5947 22.9999 10.3888 22.3949 10.7671 22.1037L12.425 20.8275L11.8295 14.5797L11.7995 13.4783L3.52317 16.1918C3.26524 16.2764 3 16.0842 3 15.8128C3 15.6866 3.05969 15.5679 3.16096 15.4926L11.5248 9.27689C11.5748 9.23967 11.6283 9.21351 11.6829 9.1974L11.5952 5.97752Z"/>
</mask>
<path d="M11.6811 5.68338L12.5089 6.24444L12.5089 6.24443L11.6811 5.68338ZM11.5952 5.97752L10.5956 6.00474V6.00474L11.5952 5.97752ZM13.086 3.61059L12.2582 3.04953L12.2582 3.04954L13.086 3.61059ZM13.9138 3.61059L13.086 4.17164V4.17164L13.9138 3.61059ZM15.3187 5.68338L14.4909 6.24443L14.4909 6.24444L15.3187 5.68338ZM15.4046 5.97752L14.405 5.95029V5.9503L15.4046 5.97752ZM15.3169 9.19735L14.3173 9.17013L14.2964 9.93918L15.0343 10.1566L15.3169 9.19735ZM15.4752 9.27689L16.0717 8.47427L16.0717 8.47427L15.4752 9.27689ZM23.839 15.4926L24.4355 14.69L24.4355 14.69L23.839 15.4926ZM23.4768 16.1918L23.7884 15.2416L23.7884 15.2416L23.4768 16.1918ZM15.2004 13.4782L15.5119 12.528L14.2372 12.1101L14.2007 13.451L15.2004 13.4782ZM15.1704 14.5797L16.1659 14.6745L16.1691 14.6408L16.17 14.6069L15.1704 14.5797ZM14.5749 20.8274L13.5794 20.7325L13.527 21.2827L13.9649 21.6198L14.5749 20.8274ZM16.2329 22.1037L16.8429 21.3113L16.2329 22.1037ZM14 22.9999V21.9999H13V22.9999H14ZM13 22.9999H14V21.9999H13V22.9999ZM10.7671 22.1037L11.3771 22.8961L11.3771 22.8961L10.7671 22.1037ZM12.425 20.8275L13.0349 21.6199L13.4729 21.2828L13.4204 20.7326L12.425 20.8275ZM11.8295 14.5797L10.8298 14.6069L10.8307 14.6408L10.834 14.6745L11.8295 14.5797ZM11.7995 13.4783L12.7991 13.4511L12.7626 12.1101L11.4879 12.528L11.7995 13.4783ZM3.52317 16.1918L3.21162 15.2416L3.21162 15.2416L3.52317 16.1918ZM3.16096 15.4926L2.56447 14.69L2.56447 14.69L3.16096 15.4926ZM11.5248 9.27689L10.9283 8.47427L10.9283 8.47427L11.5248 9.27689ZM11.6829 9.1974L11.9658 10.1565L12.7035 9.93893L12.6825 9.17018L11.6829 9.1974ZM10.8533 5.12233C10.6772 5.38224 10.587 5.69087 10.5956 6.00474L12.5948 5.9503C12.5977 6.05492 12.5676 6.1578 12.5089 6.24444L10.8533 5.12233ZM12.2582 3.04954L10.8533 5.12233L12.5089 6.24443L13.9138 4.17164L12.2582 3.04954ZM14.7416 3.04954C14.1466 2.17164 12.8533 2.17164 12.2582 3.04953L13.9138 4.17164C13.7155 4.46427 13.2844 4.46427 13.086 4.17164L14.7416 3.04954ZM16.1465 5.12233L14.7416 3.04954L13.086 4.17164L14.4909 6.24443L16.1465 5.12233ZM16.4042 6.00475C16.4128 5.69088 16.3226 5.38224 16.1465 5.12233L14.4909 6.24444C14.4322 6.1578 14.4021 6.05492 14.405 5.95029L16.4042 6.00475ZM16.3166 9.22457L16.4042 6.00474L14.405 5.9503L14.3173 9.17013L16.3166 9.22457ZM16.0717 8.47427C15.9271 8.3668 15.7674 8.28756 15.5995 8.23811L15.0343 10.1566C14.9758 10.1393 14.9231 10.1125 14.8788 10.0795L16.0717 8.47427ZM24.4355 14.69L16.0717 8.47427L14.8788 10.0795L23.2426 16.2952L24.4355 14.69ZM25 15.8128C25 15.3703 24.7907 14.9539 24.4355 14.69L23.2426 16.2952C23.09 16.1818 23 16.0029 23 15.8128H25ZM23.1653 17.142C24.0698 17.4386 25 16.7647 25 15.8128H23C23 15.4037 23.3997 15.1141 23.7884 15.2416L23.1653 17.142ZM14.8888 14.4284L23.1653 17.142L23.7884 15.2416L15.5119 12.528L14.8888 14.4284ZM16.17 14.6069L16.2 13.5054L14.2007 13.451L14.1707 14.5524L16.17 14.6069ZM15.5704 20.9223L16.1659 14.6745L14.1749 14.4848L13.5794 20.7325L15.5704 20.9223ZM13.9649 21.6198L15.6229 22.8961L16.8429 21.3113L15.1849 20.035L13.9649 21.6198ZM15.6229 22.8961C15.2447 22.605 15.4506 21.9999 15.9279 21.9999V23.9999C17.3599 23.9999 17.9776 22.1848 16.8429 21.3113L15.6229 22.8961ZM15.9279 21.9999H14V23.9999H15.9279V21.9999ZM15 23.9998V22.9999H13V23.9998H15ZM13.5 25.4998C14.3284 25.4998 15 24.8283 15 23.9998H13C13 23.7237 13.2239 23.4998 13.5 23.4998V25.4998ZM12 23.9998C12 24.8283 12.6716 25.4998 13.5 25.4998V23.4998C13.7761 23.4998 14 23.7237 14 23.9998H12ZM12 22.9999V23.9998H14V22.9999H12ZM13 21.9999H11.0721V23.9999H13V21.9999ZM11.0721 21.9999C11.5494 21.9999 11.7553 22.605 11.3771 22.8961L10.1571 21.3113C9.02237 22.1848 9.64008 23.9999 11.0721 23.9999V21.9999ZM11.3771 22.8961L13.0349 21.6199L11.815 20.0351L10.1571 21.3113L11.3771 22.8961ZM10.834 14.6745L11.4295 20.9224L13.4204 20.7326L12.8249 14.4848L10.834 14.6745ZM10.7998 13.5055L10.8298 14.6069L12.8291 14.5524L12.7991 13.4511L10.7998 13.5055ZM3.83472 17.142L12.111 14.4285L11.4879 12.528L3.21162 15.2416L3.83472 17.142ZM2 15.8128C2 16.7647 2.93017 17.4386 3.83473 17.142L3.21162 15.2416C3.60031 15.1141 4 15.4037 4 15.8128H2ZM2.56447 14.69C2.20934 14.9539 2 15.3703 2 15.8128H4C4 16.0029 3.91005 16.1818 3.75745 16.2952L2.56447 14.69ZM10.9283 8.47427L2.56447 14.69L3.75745 16.2952L12.1212 10.0795L10.9283 8.47427ZM11.3999 8.23827C11.2323 8.28773 11.0727 8.36692 10.9283 8.47427L12.1212 10.0795C12.077 10.1124 12.0243 10.1393 11.9658 10.1565L11.3999 8.23827ZM10.5956 6.00474L10.6833 9.22462L12.6825 9.17018L12.5948 5.9503L10.5956 6.00474Z" fill="black" mask="url(#path-1-inside-1)"/>
</svg>
