<svg width="27" height="27" viewBox="0 0 27 27" fill="none" xmlns="http://www.w3.org/2000/svg">
<path d="M11.5952 5.97759C11.5924 5.87297 11.6224 5.77009 11.6811 5.68345L13.086 3.61066C13.2844 3.31803 13.7155 3.31803 13.9138 3.61066L15.3187 5.68345C15.3774 5.77009 15.4075 5.87297 15.4046 5.97759L15.1704 14.5797L14.4976 21.6383C14.4731 21.895 14.2576 22.0909 13.9998 22.0909H13C12.7422 22.0909 12.5267 21.895 12.5022 21.6384L11.8295 14.5797L11.5952 5.97759Z" fill="black"/>
<path d="M3 15.8128C3 15.6867 3.05969 15.5679 3.16096 15.4927L11.5248 9.27696C11.8433 9.04025 12.2974 9.25112 12.322 9.64719L12.5214 12.848C12.5356 13.0752 12.3945 13.2833 12.1782 13.3542L3.52317 16.1919C3.26524 16.2765 3 16.0843 3 15.8128Z" fill="black"/>
<path d="M24 15.8128C24 15.6867 23.9403 15.5679 23.839 15.4927L15.4752 9.27696C15.1567 9.04025 14.7026 9.25112 14.678 9.64719L14.4786 12.848C14.4644 13.0752 14.6055 13.2833 14.8218 13.3542L23.4768 16.1919C23.7348 16.2765 24 16.0843 24 15.8128Z" fill="black"/>
<path d="M13.5 22.0908V23.9999" stroke="black" stroke-linecap="round"/>
<path d="M13.195 20.2348C13.3748 20.0964 13.6252 20.0964 13.805 20.2348L16.2329 22.1038C16.6112 22.395 16.4052 23 15.9279 23H11.0721C10.5947 23 10.3888 22.395 10.7671 22.1038L13.195 20.2348Z" fill="black"/>
</svg>
