<svg width="35" height="35" viewBox="0 0 35 35" fill="none" xmlns="http://www.w3.org/2000/svg">
<mask id="path-1-inside-1" fill="white">
<path fill-rule="evenodd" clip-rule="evenodd" d="M14.8677 7.05055C14.8648 6.94592 14.8949 6.84304 14.9536 6.75641L17.0858 3.61059C17.2841 3.31795 17.7152 3.31796 17.9135 3.61059L20.0457 6.75641C20.1044 6.84304 20.1345 6.94592 20.1316 7.05055L20.0103 11.5064L31.7982 20.2669C31.9252 20.3612 32 20.51 32 20.6682V20.764C32 21.1042 31.6675 21.3451 31.3442 21.2391L19.8479 17.4698L19.8065 18.991L18.9841 27.6186L21.7175 29.7227C22.0957 30.0138 21.8898 30.6189 21.4125 30.6189H18V31.9996C18 32.2757 17.7761 32.4996 17.5 32.4996C17.2239 32.4996 17 32.2757 17 31.9996V30.6189H13.5874C13.1101 30.6189 12.9042 30.0138 13.2824 29.7227L16.0152 27.619L15.1928 18.991L15.1514 17.47L3.65577 21.2391C3.33247 21.3451 3 21.1042 3 20.764V20.6682C3 20.51 3.07482 20.3612 3.20176 20.2669L14.989 11.5069L14.8677 7.05055Z"/>
</mask>
<path d="M14.9536 6.75641L15.7814 7.31746L15.7814 7.31746L14.9536 6.75641ZM14.8677 7.05055L13.868 7.07776L13.868 7.07777L14.8677 7.05055ZM17.0858 3.61059L16.258 3.04953L16.258 3.04954L17.0858 3.61059ZM17.9135 3.61059L17.0858 4.17164L17.0858 4.17164L17.9135 3.61059ZM20.0457 6.75641L19.2179 7.31746L19.2179 7.31747L20.0457 6.75641ZM20.1316 7.05055L19.132 7.02332V7.02332L20.1316 7.05055ZM20.0103 11.5064L19.0107 11.4792L18.9965 11.9989L19.4138 12.3091L20.0103 11.5064ZM31.7982 20.2669L31.2018 21.0695L31.2018 21.0695L31.7982 20.2669ZM31.3442 21.2391L31.0327 22.1893L31.3442 21.2391ZM19.8479 17.4698L20.1594 16.5195L18.8848 16.1016L18.8483 17.4426L19.8479 17.4698ZM19.8065 18.991L20.802 19.0859L20.8052 19.0521L20.8061 19.0182L19.8065 18.991ZM18.9841 27.6186L17.9887 27.5237L17.9362 28.0738L18.3742 28.411L18.9841 27.6186ZM21.7175 29.7227L22.3275 28.9303V28.9303L21.7175 29.7227ZM18 30.6189V29.6189H17V30.6189H18ZM17 30.6189H18V29.6189H17V30.6189ZM13.2824 29.7227L13.8924 30.5151L13.8924 30.5151L13.2824 29.7227ZM16.0152 27.619L16.6252 28.4114L17.0631 28.0743L17.0107 27.5241L16.0152 27.619ZM15.1928 18.991L14.1932 19.0182L14.1941 19.0521L14.1973 19.0859L15.1928 18.991ZM15.1514 17.47L16.151 17.4428L16.1145 16.1019L14.8399 16.5198L15.1514 17.47ZM3.65577 21.2391L3.96732 22.1893H3.96733L3.65577 21.2391ZM3.20176 20.2669L3.79824 21.0695L3.79824 21.0695L3.20176 20.2669ZM14.989 11.5069L15.5855 12.3096L16.0028 11.9994L15.9886 11.4797L14.989 11.5069ZM14.1258 6.19535C13.9496 6.45526 13.8595 6.7639 13.868 7.07776L15.8673 7.02333C15.8701 7.12795 15.8401 7.23082 15.7814 7.31746L14.1258 6.19535ZM16.258 3.04954L14.1258 6.19536L15.7814 7.31746L17.9135 4.17164L16.258 3.04954ZM18.7413 3.04954C18.1463 2.17164 16.853 2.17164 16.258 3.04953L17.9135 4.17164C17.7152 4.46427 17.2841 4.46427 17.0858 4.17164L18.7413 3.04954ZM20.8735 6.19536L18.7413 3.04954L17.0858 4.17164L19.2179 7.31746L20.8735 6.19536ZM21.1313 7.07777C21.1398 6.76391 21.0496 6.45527 20.8735 6.19535L19.2179 7.31747C19.1592 7.23082 19.1291 7.12794 19.132 7.02332L21.1313 7.07777ZM21.0099 11.5336L21.1313 7.07777L19.132 7.02332L19.0107 11.4792L21.0099 11.5336ZM32.3947 19.4643L20.6068 10.7038L19.4138 12.3091L31.2018 21.0695L32.3947 19.4643ZM33 20.6682C33 20.1937 32.7755 19.7473 32.3947 19.4643L31.2018 21.0695C31.0748 20.9752 31 20.8263 31 20.6682H33ZM33 20.764V20.6682H31V20.764H33ZM31.0327 22.1893C32.0026 22.5073 33 21.7847 33 20.764H31C31 20.4237 31.3325 20.1828 31.6558 20.2888L31.0327 22.1893ZM19.5363 18.42L31.0327 22.1893L31.6558 20.2888L20.1594 16.5195L19.5363 18.42ZM20.8061 19.0182L20.8475 17.497L18.8483 17.4426L18.8068 18.9638L20.8061 19.0182ZM19.9796 27.7134L20.802 19.0859L18.811 18.8961L17.9887 27.5237L19.9796 27.7134ZM18.3742 28.411L21.1075 30.5151L22.3275 28.9303L19.5941 26.8261L18.3742 28.411ZM21.1075 30.5151C20.7292 30.2239 20.9351 29.6189 21.4125 29.6189V31.6189C22.8445 31.6189 23.4622 29.8038 22.3275 28.9303L21.1075 30.5151ZM21.4125 29.6189H18V31.6189H21.4125V29.6189ZM19 31.9996V30.6189H17V31.9996H19ZM17.5 33.4996C18.3284 33.4996 19 32.828 19 31.9996H17C17 31.7234 17.2239 31.4996 17.5 31.4996V33.4996ZM16 31.9996C16 32.828 16.6716 33.4996 17.5 33.4996V31.4996C17.7761 31.4996 18 31.7234 18 31.9996H16ZM16 30.6189V31.9996H18V30.6189H16ZM17 29.6189H13.5874V31.6189H17V29.6189ZM13.5874 29.6189C14.0647 29.6189 14.2706 30.2239 13.8924 30.5151L12.6724 28.9303C11.5377 29.8038 12.1554 31.6189 13.5874 31.6189V29.6189ZM13.8924 30.5151L16.6252 28.4114L15.4052 26.8266L12.6724 28.9303L13.8924 30.5151ZM14.1973 19.0859L15.0197 27.7138L17.0107 27.5241L16.1883 18.8961L14.1973 19.0859ZM14.1518 17.4972L14.1932 19.0182L16.1925 18.9638L16.151 17.4428L14.1518 17.4972ZM3.96733 22.1893L15.463 18.4202L14.8399 16.5198L3.34422 20.2888L3.96733 22.1893ZM2 20.764C2 21.7847 2.9974 22.5073 3.96732 22.1893L3.34422 20.2888C3.66754 20.1828 4 20.4237 4 20.764H2ZM2 20.6682V20.764H4V20.6682H2ZM2.60528 19.4643C2.22446 19.7473 2 20.1937 2 20.6682H4C4 20.8263 3.92518 20.9752 3.79824 21.0695L2.60528 19.4643ZM14.3925 10.7043L2.60527 19.4643L3.79824 21.0695L15.5855 12.3096L14.3925 10.7043ZM13.868 7.07777L13.9894 11.5342L15.9886 11.4797L15.8673 7.02332L13.868 7.07777Z" fill="black" mask="url(#path-1-inside-1)"/>
</svg>
