<svg width="24" height="24" viewBox="0 0 24 24" fill="none" xmlns="http://www.w3.org/2000/svg">
<ellipse cx="1.22104" cy="1.23843" rx="1.22104" ry="1.23843" fill="black"/>
<ellipse cx="1.22104" cy="22.2384" rx="1.22104" ry="1.23843" fill="black"/>
<ellipse cx="8.22104" cy="1.23843" rx="1.22104" ry="1.23843" fill="black"/>
<ellipse cx="8.22104" cy="22.2384" rx="1.22104" ry="1.23843" fill="black"/>
<ellipse cx="15.221" cy="1.23843" rx="1.22104" ry="1.23843" fill="black"/>
<ellipse cx="15.221" cy="22.2384" rx="1.22104" ry="1.23843" fill="black"/>
<ellipse cx="22.221" cy="1.23843" rx="1.22104" ry="1.23843" fill="black"/>
<ellipse cx="22.221" cy="22.2384" rx="1.22104" ry="1.23843" fill="black"/>
<ellipse cx="1.23862" cy="8.22104" rx="1.22104" ry="1.23843" transform="rotate(90 1.23862 8.22104)" fill="black"/>
<ellipse cx="22.2386" cy="8.22104" rx="1.22104" ry="1.23843" transform="rotate(90 22.2386 8.22104)" fill="black"/>
<ellipse cx="1.23862" cy="15.221" rx="1.22104" ry="1.23843" transform="rotate(90 1.23862 15.221)" fill="black"/>
<ellipse cx="22.2386" cy="15.221" rx="1.22104" ry="1.23843" transform="rotate(90 22.2386 15.221)" fill="black"/>
</svg>
