<svg width="37" height="37" viewBox="0 0 37 37" fill="none" xmlns="http://www.w3.org/2000/svg">
<rect x="4.5" y="4.5" width="28" height="28" rx="14" stroke="black"/>
<path d="M16.5952 10.9776C16.5924 10.873 16.6224 10.7701 16.6811 10.6835L18.086 8.61066C18.2844 8.31803 18.7155 8.31803 18.9138 8.61066L20.3187 10.6835C20.3774 10.7701 20.4075 10.873 20.4046 10.9776L20.1704 19.5797L19.4976 26.6383C19.4731 26.895 19.2576 27.0909 18.9998 27.0909H18C17.7422 27.0909 17.5267 26.895 17.5022 26.6384L16.8295 19.5797L16.5952 10.9776Z" fill="black"/>
<path d="M8 20.8128C8 20.6867 8.05969 20.5679 8.16096 20.4927L16.5248 14.277C16.8433 14.0403 17.2974 14.2511 17.322 14.6472L17.5214 17.848C17.5356 18.0752 17.3945 18.2833 17.1782 18.3542L8.52317 21.1919C8.26524 21.2765 8 21.0843 8 20.8128Z" fill="black"/>
<path d="M29 20.8128C29 20.6867 28.9403 20.5679 28.839 20.4927L20.4752 14.277C20.1567 14.0403 19.7026 14.2511 19.678 14.6472L19.4786 17.848C19.4644 18.0752 19.6055 18.2833 19.8218 18.3542L28.4768 21.1919C28.7348 21.2765 29 21.0843 29 20.8128Z" fill="black"/>
<path d="M18.5 27.0908V28.9999" stroke="black" stroke-linecap="round"/>
<path d="M18.195 25.2348C18.3748 25.0964 18.6252 25.0964 18.805 25.2348L21.2329 27.1038C21.6112 27.395 21.4052 28 20.9279 28H16.0721C15.5947 28 15.3888 27.395 15.7671 27.1038L18.195 25.2348Z" fill="black"/>
</svg>
