<svg width="43" height="43" viewBox="0 0 43 43" fill="none" xmlns="http://www.w3.org/2000/svg">
<rect x="4.5" y="4.5" width="34" height="34" rx="17" stroke="black"/>
<path d="M18.8677 11.0506C18.8648 10.946 18.8949 10.8431 18.9536 10.7565L21.0858 7.61066C21.2841 7.31802 21.7152 7.31803 21.9135 7.61066L24.0457 10.7565C24.1044 10.8431 24.1345 10.946 24.1316 11.0506L23.8065 22.9911L22.861 32.9111C22.8365 33.1677 22.621 33.3636 22.3632 33.3636H20.6361C20.3783 33.3636 20.1628 33.1677 20.1383 32.9111L19.1928 22.9911L18.8677 11.0506Z" fill="black"/>
<path d="M7 24.6683C7 24.5101 7.07482 24.3613 7.20176 24.2669L19.0542 15.4586C19.3727 15.2219 19.8268 15.4328 19.8514 15.8288L20.1578 20.7465C20.1719 20.9737 20.0308 21.1817 19.8145 21.2527L7.65577 25.2391C7.33247 25.3451 7 25.1043 7 24.764V24.6683Z" fill="black"/>
<path d="M36 24.6683C36 24.5101 35.9252 24.3613 35.7982 24.2669L23.9458 15.4586C23.6273 15.2219 23.1732 15.4328 23.1486 15.8288L22.8422 20.7465C22.8281 20.9737 22.9692 21.1817 23.1855 21.2527L35.3442 25.2391C35.6675 25.3451 36 25.1043 36 24.764V24.6683Z" fill="black"/>
<path d="M21.5 33.3633V35.9996" stroke="black" stroke-linecap="round"/>
<path d="M21.1949 30.7109C21.3747 30.5725 21.6251 30.5725 21.8049 30.7109L25.7175 33.7227C26.0957 34.0139 25.8898 34.6189 25.4125 34.6189H17.5874C17.1101 34.6189 16.9042 34.0139 17.2824 33.7227L21.1949 30.7109Z" fill="black"/>
</svg>
