<svg width="27" height="27" viewBox="0 0 27 27" fill="none" xmlns="http://www.w3.org/2000/svg">
<rect x="10" y="10" width="8" height="8" rx="0.5" fill="black"/>
<path d="M7.53369 7.53735L11 11" stroke="black"/>
<path d="M6.0963 6.76577C5.88047 6.33472 6.33952 5.87795 6.76949 6.09594L9.73183 7.59784C10.0356 7.75187 10.0999 8.15798 9.8584 8.39824L8.38312 9.86616C8.14165 10.1064 7.73588 10.0402 7.58337 9.73559L6.0963 6.76577Z" fill="black"/>
<path d="M20.8735 7.53735L17.4072 11" stroke="black"/>
<path d="M22.3109 6.76577C22.5268 6.33472 22.0677 5.87795 21.6377 6.09594L18.6754 7.59784C18.3716 7.75187 18.3074 8.15798 18.5488 8.39824L20.0241 9.86616C20.2656 10.1064 20.6713 10.0402 20.8239 9.73559L22.3109 6.76577Z" fill="black"/>
<path d="M7.53369 20.8838L11 17.4211" stroke="black"/>
<path d="M6.0963 21.6554C5.88047 22.0864 6.33952 22.5432 6.76949 22.3252L9.73183 20.8233C10.0356 20.6693 10.0999 20.2632 9.8584 20.0229L8.38312 18.555C8.14165 18.3147 7.73588 18.381 7.58337 18.6856L6.0963 21.6554Z" fill="black"/>
<path d="M20.8735 20.8838L17.4072 17.4211" stroke="black"/>
<path d="M22.3109 21.6554C22.5268 22.0864 22.0677 22.5432 21.6377 22.3252L18.6754 20.8233C18.3716 20.6693 18.3074 20.2632 18.5488 20.0229L20.0241 18.555C20.2656 18.3147 20.6713 18.381 20.8239 18.6856L22.3109 21.6554Z" fill="black"/>
</svg>
