<svg width="35" height="35" viewBox="0 0 35 35" fill="none" xmlns="http://www.w3.org/2000/svg">
<path d="M14.8677 7.05062C14.8648 6.94599 14.8949 6.84311 14.9536 6.75648L17.0858 3.61066C17.2841 3.31802 17.7152 3.31803 17.9135 3.61066L20.0457 6.75648C20.1044 6.84312 20.1345 6.94599 20.1316 7.05062L19.8065 18.9911L18.861 28.9111C18.8365 29.1677 18.621 29.3636 18.3632 29.3636H16.6361C16.3783 29.3636 16.1628 29.1677 16.1383 28.9111L15.1928 18.9911L14.8677 7.05062Z" fill="black"/>
<path d="M3 20.6683C3 20.5101 3.07482 20.3613 3.20176 20.2669L15.0542 11.4586C15.3727 11.2219 15.8268 11.4328 15.8514 11.8288L16.1578 16.7465C16.1719 16.9737 16.0308 17.1817 15.8145 17.2527L3.65577 21.2391C3.33247 21.3451 3 21.1043 3 20.764V20.6683Z" fill="black"/>
<path d="M32 20.6683C32 20.5101 31.9252 20.3613 31.7982 20.2669L19.9458 11.4586C19.6273 11.2219 19.1732 11.4328 19.1486 11.8288L18.8422 16.7465C18.8281 16.9737 18.9692 17.1817 19.1855 17.2527L31.3442 21.2391C31.6675 21.3451 32 21.1043 32 20.764V20.6683Z" fill="black"/>
<path d="M17.5 29.3633V31.9996" stroke="black" stroke-linecap="round"/>
<path d="M17.1949 26.7109C17.3747 26.5725 17.6251 26.5725 17.8049 26.7109L21.7175 29.7227C22.0957 30.0139 21.8898 30.6189 21.4125 30.6189H13.5874C13.1101 30.6189 12.9042 30.0139 13.2824 29.7227L17.1949 26.7109Z" fill="black"/>
</svg>
