<svg width="27" height="27" viewBox="0 0 27 27" fill="none" xmlns="http://www.w3.org/2000/svg">
<path d="M20.5 22C20.7761 22 21 21.7761 21 21.5C21 21.2239 20.7761 21 20.5 21V22ZM13 21.5H12.5C12.5 21.7761 12.7239 22 13 22V21.5ZM13.5 9C13.5 8.72386 13.2761 8.5 13 8.5C12.7239 8.5 12.5 8.72386 12.5 9H13.5ZM20.5 21H13V22H20.5V21ZM13.5 21.5V9H12.5V21.5H13.5Z" fill="black"/>
<path d="M6 4L13 9L20 4" stroke="black" stroke-linecap="round"/>
<path d="M6 14L13 9L20 14" stroke="black" stroke-linecap="round"/>
</svg>
