<svg width="27" height="27" viewBox="0 0 27 27" fill="none" xmlns="http://www.w3.org/2000/svg">
<path d="M17.8936 4.3747C18.0764 4.16776 18.3924 4.14822 18.5993 4.33106L21.9966 7.33269C22.1002 7.4242 22.1613 7.55449 22.1654 7.69264L22.2867 11.803C22.2996 12.2406 21.7839 12.4823 21.4559 12.1925L15.9508 7.32866C15.7439 7.14582 15.7244 6.82984 15.9072 6.6229L17.8936 4.3747Z" fill="black"/>
<path d="M17.8242 8.98401L7.2998 21" stroke="black" stroke-linecap="round"/>
<path d="M10.0757 4.3747C9.89285 4.16776 9.57687 4.14822 9.36993 4.33106L5.97261 7.33269C5.86904 7.4242 5.80796 7.55449 5.80388 7.69264L5.68255 11.803C5.66963 12.2406 6.18536 12.4823 6.51339 12.1925L12.0184 7.32866C12.2253 7.14582 12.2449 6.82984 12.062 6.6229L10.0757 4.3747Z" fill="black"/>
<path d="M10.145 8.98401L20.6694 21" stroke="black" stroke-linecap="round"/>
</svg>
