<svg width="27" height="27" viewBox="0 0 27 27" fill="none" xmlns="http://www.w3.org/2000/svg">
<path d="M17.8936 22.5523C18.0764 22.7592 18.3924 22.7788 18.5993 22.5959L21.9966 19.5943C22.1002 19.5028 22.1613 19.3725 22.1654 19.2344L22.2867 15.124C22.2996 14.6864 21.7839 14.4447 21.4559 14.7345L15.9508 19.5983C15.7439 19.7812 15.7244 20.0972 15.9072 20.3041L17.8936 22.5523Z" fill="black"/>
<path d="M17.8242 17.943L7.2998 5.927" stroke="black" stroke-linecap="round"/>
<path d="M10.0757 22.5523C9.89285 22.7592 9.57687 22.7788 9.36993 22.5959L5.97261 19.5943C5.86904 19.5028 5.80796 19.3725 5.80388 19.2344L5.68255 15.124C5.66963 14.6864 6.18536 14.4447 6.51339 14.7345L12.0184 19.5983C12.2253 19.7812 12.2449 20.0972 12.062 20.3041L10.0757 22.5523Z" fill="black"/>
<path d="M10.145 17.943L20.6694 5.927" stroke="black" stroke-linecap="round"/>
</svg>
