<?xml version="1.0" encoding="UTF-8" standalone="no"?>
<svg width="11.2889mm" height="11.2889mm"
 viewBox="0 0 32 32"
 xmlns="http://www.w3.org/2000/svg" xmlns:xlink="http://www.w3.org/1999/xlink"  version="1.2" baseProfile="tiny">
<title>Qt Svg Document</title>
<desc>Generated with Qt</desc>
<defs>
</defs>
<g fill="none" stroke="black" stroke-width="1" fill-rule="evenodd" stroke-linecap="square" stroke-linejoin="bevel" >

<path vector-effect="non-scaling-stroke" fill-rule="evenodd" d="M-4.25197,12.248 L0,16.5 L-4.25197,20.752"/>
<g fill="none" stroke="#000000" stroke-opacity="1" stroke-width="1" stroke-linecap="square" stroke-linejoin="bevel" transform="matrix(1,0,0,1,0,0)"
font-family="MS Shell Dlg 2" font-size="8.25" font-weight="400" font-style="normal" 
>
<path vector-effect="non-scaling-stroke" fill-rule="evenodd" d="M36.252,20.752 L32,16.5 L36.252,12.248"/>
</g>

<g fill="none" stroke="#000000" stroke-opacity="1" stroke-width="1" stroke-linecap="square" stroke-linejoin="bevel" transform="matrix(1,0,0,1,0,0)"
font-family="MS Shell Dlg 2" font-size="8.25" font-weight="400" font-style="normal" 
>
<path vector-effect="non-scaling-stroke" fill-rule="evenodd" d="M0,17.0669 L0,19.9016"/>
<path vector-effect="non-scaling-stroke" fill-rule="evenodd" d="M5.66929,17.0669 L5.66929,19.9016"/>
<path vector-effect="non-scaling-stroke" fill-rule="evenodd" d="M11.3386,17.0669 L11.3386,19.9016"/>
<path vector-effect="non-scaling-stroke" fill-rule="evenodd" d="M17.0079,17.0669 L17.0079,19.9016"/>
<path vector-effect="non-scaling-stroke" fill-rule="evenodd" d="M22.6772,17.0669 L22.6772,19.9016"/>
<path vector-effect="non-scaling-stroke" fill-rule="evenodd" d="M28.3465,17.0669 L28.3465,19.9016"/>
</g>

<g fill="none" stroke="#000000" stroke-opacity="1" stroke-width="1" stroke-linecap="square" stroke-linejoin="bevel" transform="matrix(1,0,0,1,0,0)"
font-family="MS Shell Dlg 2" font-size="8.25" font-weight="400" font-style="normal" 
>
</g>

<g fill="none" stroke="#000000" stroke-opacity="1" stroke-width="3.68504" stroke-linecap="square" stroke-linejoin="bevel" transform="matrix(1,0,0,1,0,0)"
font-family="MS Shell Dlg 2" font-size="8.25" font-weight="400" font-style="normal" 
>
<path vector-effect="none" fill-rule="evenodd" d="M0,16.5 L32,16.5"/>
</g>

<g fill="none" stroke="#ffffff" stroke-opacity="1" stroke-width="1.98425" stroke-linecap="butt" stroke-linejoin="bevel" transform="matrix(1,0,0,1,0,0)"
font-family="MS Shell Dlg 2" font-size="8.25" font-weight="400" font-style="normal" 
>
<path vector-effect="none" fill-rule="evenodd" d="M0,16.5 L32,16.5"/>
</g>
</g>
</svg>
