<svg width="35" height="35" viewBox="0 0 35 35" fill="none" xmlns="http://www.w3.org/2000/svg">

<ellipse cx="21.307" cy="5.2963" rx="1.30697" ry="1.2963" fill="black"/>
<ellipse cx="29.307" cy="5.2963" rx="1.30697" ry="1.2963" fill="black"/>
<ellipse cx="25.307" cy="12.2963" rx="1.30697" ry="1.2963" fill="black"/>
<ellipse cx="17.307" cy="18.2963" rx="1.30697" ry="1.2963" fill="black"/>
<ellipse cx="23.307" cy="20.2963" rx="1.30697" ry="1.2963" fill="black"/>
<ellipse cx="4.30697" cy="14.2963" rx="1.30697" ry="1.2963" fill="black"/>
<ellipse cx="3.30697" cy="22.2963" rx="1.30697" ry="1.2963" fill="black"/>
<ellipse cx="8.30696" cy="18.2963" rx="1.30697" ry="1.2963" fill="black"/>
<ellipse cx="17.307" cy="9.2963" rx="1.30697" ry="1.2963" fill="black"/>
<ellipse cx="10.307" cy="12.2963" rx="1.30697" ry="1.2963" fill="black"/>
<ellipse cx="6.30697" cy="27.2963" rx="1.30697" ry="1.2963" fill="black"/>
<ellipse cx="13.307" cy="26.2963" rx="1.30697" ry="1.2963" fill="black"/>
<ellipse cx="18.307" cy="30.2963" rx="1.30697" ry="1.2963" fill="black"/>
<ellipse cx="19.307" cy="24.2963" rx="1.30697" ry="1.2963" fill="black"/>
<ellipse cx="31.307" cy="25.2963" rx="1.30697" ry="1.2963" fill="black"/>
<path d="M21.7246 27.6388C21.322 27.8607 20.8585 27.4675 21.0118 27.0342L22.4891 22.8585C22.6058 22.5284 23.0169 22.4175 23.2839 22.6439L25.6855 24.6811C25.9525 24.9076 25.91 25.3312 25.6034 25.5003L21.7246 27.6388Z" fill="black" stroke="black" stroke-linecap="round" stroke-linejoin="round"/>
<path d="M4.93632 6.74449C4.69688 6.35208 5.0693 5.8717 5.509 6.0058L9.74564 7.2979C10.0805 7.40003 10.2094 7.80581 9.99494 8.0825L8.06541 10.5714C7.85091 10.8481 7.42579 10.8243 7.24344 10.5255L4.93632 6.74449Z" fill="black" stroke="black" stroke-linecap="round" stroke-linejoin="round"/>
</svg>
