<svg width="51" height="26" viewBox="0 0 51 26" fill="none" xmlns="http://www.w3.org/2000/svg">
<path d="M4 12H11.5L18.5 13.5L32.5 14L37.5 11.5L39.6538 7.5M41 5L39.6538 7.5M44 7L39.6538 7.5" stroke="black" stroke-linecap="round"/>
<path d="M11.5 12L16.5 7.5M16.5 7.5L20.5 5M16.5 7.5H20L23.5 9.5H27M20.5 5L22 3.5L24.5 2.5M20.5 5L25 4.5L29 6L34 5" stroke="black" stroke-linecap="round"/>
<path d="M46 9L43.5 11H38M32 14L36 16.5L37.5 17.4545M46 20H41.5L37.5 17.4545M43.5 15.5L41.5 17L37.5 17.4545" stroke="black" stroke-linecap="round"/>
<path d="M40 23.5L36.5 21L35.5 16.5M30 19L26 20L20 18.5M20 18.5L17.5 13.5M20 18.5L25.5 22.5H28.5" stroke="black" stroke-linecap="round"/>
</svg>
