<svg width="35" height="26" viewBox="0 0 35 26" fill="none" xmlns="http://www.w3.org/2000/svg">
<ellipse cx="8.80747" cy="12.8634" rx="4.80747" ry="4.86337" fill="#0080FF"/>
<path d="M17.5697 13.0869L13.4075 11.5505C12.1825 11.0983 11.0132 12.3356 11.5339 13.5331C11.718 13.9565 12.0886 14.2701 12.5389 14.3721C13.5091 14.5917 15.3083 14.971 16.9129 15.1551C17.1803 15.1858 17.5501 15.1969 17.9297 15.1978C19.0318 15.2005 20.1125 14.9255 21.1195 14.4777L25.0292 12.739C25.2488 12.6414 25.4839 12.5832 25.7237 12.5672C26.0254 12.5471 26.3205 12.6617 26.5296 12.8801L28.5706 15.0117C28.6584 15.1033 28.7798 15.1551 28.9066 15.1551H30.4968C30.7747 15.1551 30.9999 14.9299 30.9999 14.652C30.9999 14.3742 30.7747 14.1489 30.4968 14.1489H29.0434L27.4667 12.4184L27.4404 12.3895C26.9833 11.8875 26.6461 11.5172 25.9603 11.5151C25.689 11.5143 25.1718 11.6266 24.9159 11.7167C23.1501 12.3388 20.7356 12.9187 19.4225 13.2154C18.8052 13.3549 18.1634 13.306 17.5697 13.0869Z" fill="#0080FF"/>
</svg>
